<svg xmlns='http://www.w3.org/2000/svg' version='1.1' width='796px' height='575px'><svg xmlns="http://www.w3.org/2000/svg" id="graphic" style="position: absolute;" font-family="Source Sans Pro" width="775" height="430.8125" x="10.5" y="133.6875"><g class="facets"><g class="facet" transform="translate(0,14)" opacity="1"><g class="fl-chart"><rect class="fl-chart-debug-rectangle" x="0" y="0" style="stroke-width: 1px; fill: none; display: none; stroke: red;" width="775" height="416.8125"/><clipPath class="fl-data-clip-path" id="fl-chart-layout-3-clip-path"><rect x="80.74834899902343" y="7.2" width="684.0693133518903" height="327.640130323125"/></clipPath><clipPath class="fl-grid-clip-path" id="fl-chart-layout-3-grid-clip-path"><rect x="79.24834899902343" y="5.7" width="687.0693133518903" height="330.640130323125"/></clipPath><g class="fl-chart-background"><rect class="fl-chart-fill" x="80.74834899902343" y="7.2" width="684.0693133518903" height="327.64013032312494" fill="none"/><image class="fl-chart-image" x="80.74834899902343" y="7.2" width="684.0693133518903" height="327.64013032312494" preserveAspectRatio="none"/><rect class="fl-chart-interaction" style="opacity: 0;" x="80.74834899902343" y="7.2" width="684.0693133518903" height="327.64013032312494"/></g><g class="fl-data-background" clip-path="url(#fl-chart-layout-3-clip-path)"/><g class="fl-gridlines" style="pointer-events: none;" clip-path="url(#fl-chart-layout-3-grid-clip-path)"><g class="fl-gridlines-vertical"/><g class="fl-gridlines-horizontal"><line x1="80.74834899902343" x2="764.8176623509137" y1="334.8401303231249" y2="334.8401303231249" style="shape-rendering: crispedges; opacity: 1; stroke: rgb(238, 238, 238); stroke-width: 1.5;"/><line x1="80.74834899902343" x2="764.8176623509137" y1="288.03439741982135" y2="288.03439741982135" style="shape-rendering: crispedges; opacity: 1; stroke: rgb(238, 238, 238); stroke-width: 1.5;"/><line x1="80.74834899902343" x2="764.8176623509137" y1="241.2286645165178" y2="241.2286645165178" style="shape-rendering: crispedges; opacity: 1; stroke: rgb(238, 238, 238); stroke-width: 1.5;"/><line x1="80.74834899902343" x2="764.8176623509137" y1="194.42293161321425" y2="194.42293161321425" style="shape-rendering: crispedges; opacity: 1; stroke: rgb(238, 238, 238); stroke-width: 1.5;"/><line x1="80.74834899902343" x2="764.8176623509137" y1="147.61719870991067" y2="147.61719870991067" style="shape-rendering: crispedges; opacity: 1; stroke: rgb(238, 238, 238); stroke-width: 1.5;"/><line x1="80.74834899902343" x2="764.8176623509137" y1="100.81146580660712" y2="100.81146580660712" style="shape-rendering: crispedges; opacity: 1; stroke: rgb(238, 238, 238); stroke-width: 1.5;"/><line x1="80.74834899902343" x2="764.8176623509137" y1="54.005732903303574" y2="54.005732903303574" style="shape-rendering: crispedges; opacity: 1; stroke: rgb(238, 238, 238); stroke-width: 1.5;"/><line x1="80.74834899902343" x2="764.8176623509137" y1="7.2" y2="7.2" style="shape-rendering: crispedges; opacity: 1; stroke: rgb(238, 238, 238); stroke-width: 1.5;"/></g></g><g class="fl-axes"><g class="fl-x-axes"><g class="fl-axis fl-x-axis fl-bottom-axis"><g class="fl-axis-line"><line x1="80.74834899902343" y1="334.840130323125" y2="334.840130323125" style="shape-rendering: crispedges; stroke-linecap: square; stroke-width: 1.5; opacity: 1; stroke: rgb(238, 238, 238);" x2="764.8176623509137"/></g><g class="fl-axis-ticks"><g transform="translate(764.8176879882812, 334.8401184082031)" style="opacity: 1;"><line y2="7" style="stroke: rgb(238, 238, 238); stroke-width: 1.5;"/><text text-anchor="end" transform="translate(0,10.5) rotate(-45,0,0) translate(0,8.316)" style="user-select: none; cursor: default; fill: rgb(170, 170, 170); font-size: 12.6px; font-weight: normal;"><tspan x="0" dy="0">10,000</tspan></text></g><g transform="translate(754.3839111328125, 334.8401184082031)" style="opacity: 1;"><line y2="7" style="stroke: rgb(238, 238, 238); stroke-width: 1.5;"/><text text-anchor="end" transform="translate(0,10.5) rotate(-45,0,0) translate(0,8.316)" style="user-select: none; cursor: default; fill: rgb(170, 170, 170); font-size: 12.6px; font-weight: normal; opacity: 0;"><tspan x="0" dy="0">9000</tspan></text></g><g transform="translate(742.719970703125, 334.8401184082031)" style="opacity: 1;"><line y2="7" style="stroke: rgb(238, 238, 238); stroke-width: 1.5;"/><text text-anchor="end" transform="translate(0,10.5) rotate(-45,0,0) translate(0,8.316)" style="user-select: none; cursor: default; fill: rgb(170, 170, 170); font-size: 12.6px; font-weight: normal; opacity: 0;"><tspan x="0" dy="0">8000</tspan></text></g><g transform="translate(729.4964599609375, 334.8401184082031)" style="opacity: 1;"><line y2="7" style="stroke: rgb(238, 238, 238); stroke-width: 1.5;"/><text text-anchor="end" transform="translate(0,10.5) rotate(-45,0,0) translate(0,8.316)" style="user-select: none; cursor: default; fill: rgb(170, 170, 170); font-size: 12.6px; font-weight: normal;"><tspan x="0" dy="0">7000</tspan></text></g><g transform="translate(714.2310180664062, 334.8401184082031)" style="opacity: 1;"><line y2="7" style="stroke: rgb(238, 238, 238); stroke-width: 1.5;"/><text text-anchor="end" transform="translate(0,10.5) rotate(-45,0,0) translate(0,8.316)" style="user-select: none; cursor: default; fill: rgb(170, 170, 170); font-size: 12.6px; font-weight: normal; opacity: 0;"><tspan x="0" dy="0">6000</tspan></text></g><g transform="translate(696.1758422851562, 334.8401184082031)" style="opacity: 1;"><line y2="7" style="stroke: rgb(238, 238, 238); stroke-width: 1.5;"/><text text-anchor="end" transform="translate(0,10.5) rotate(-45,0,0) translate(0,8.316)" style="user-select: none; cursor: default; fill: rgb(170, 170, 170); font-size: 12.6px; font-weight: normal;"><tspan x="0" dy="0">5000</tspan></text></g><g transform="translate(674.078125, 334.8401184082031)" style="opacity: 1;"><line y2="7" style="stroke: rgb(238, 238, 238); stroke-width: 1.5;"/><text text-anchor="end" transform="translate(0,10.5) rotate(-45,0,0) translate(0,8.316)" style="user-select: none; cursor: default; fill: rgb(170, 170, 170); font-size: 12.6px; font-weight: normal; opacity: 0;"><tspan x="0" dy="0">4000</tspan></text></g><g transform="translate(645.5892333984375, 334.8401184082031)" style="opacity: 1;"><line y2="7" style="stroke: rgb(238, 238, 238); stroke-width: 1.5;"/><text text-anchor="end" transform="translate(0,10.5) rotate(-45,0,0) translate(0,8.316)" style="user-select: none; cursor: default; fill: rgb(170, 170, 170); font-size: 12.6px; font-weight: normal;"><tspan x="0" dy="0">3000</tspan></text></g><g transform="translate(605.4363403320312, 334.8401184082031)" style="opacity: 1;"><line y2="7" style="stroke: rgb(238, 238, 238); stroke-width: 1.5;"/><text text-anchor="end" transform="translate(0,10.5) rotate(-45,0,0) translate(0,8.316)" style="user-select: none; cursor: default; fill: rgb(170, 170, 170); font-size: 12.6px; font-weight: normal;"><tspan x="0" dy="0">2000</tspan></text></g><g transform="translate(536.7945556640625, 334.8401184082031)" style="opacity: 1;"><line y2="7" style="stroke: rgb(238, 238, 238); stroke-width: 1.5;"/><text text-anchor="end" transform="translate(0,10.5) rotate(-45,0,0) translate(0,8.316)" style="user-select: none; cursor: default; fill: rgb(170, 170, 170); font-size: 12.6px; font-weight: normal;"><tspan x="0" dy="0">1000</tspan></text></g><g transform="translate(526.3607788085938, 334.8401184082031)" style="opacity: 1;"><line y2="7" style="stroke: rgb(238, 238, 238); stroke-width: 1.5;"/><text text-anchor="end" transform="translate(0,10.5) rotate(-45,0,0) translate(0,8.316)" style="user-select: none; cursor: default; fill: rgb(170, 170, 170); font-size: 12.6px; font-weight: normal; opacity: 0;"><tspan x="0" dy="0">900</tspan></text></g><g transform="translate(514.6968383789062, 334.8401184082031)" style="opacity: 1;"><line y2="7" style="stroke: rgb(238, 238, 238); stroke-width: 1.5;"/><text text-anchor="end" transform="translate(0,10.5) rotate(-45,0,0) translate(0,8.316)" style="user-select: none; cursor: default; fill: rgb(170, 170, 170); font-size: 12.6px; font-weight: normal; opacity: 0;"><tspan x="0" dy="0">800</tspan></text></g><g transform="translate(501.47332763671875, 334.8401184082031)" style="opacity: 1;"><line y2="7" style="stroke: rgb(238, 238, 238); stroke-width: 1.5;"/><text text-anchor="end" transform="translate(0,10.5) rotate(-45,0,0) translate(0,8.316)" style="user-select: none; cursor: default; fill: rgb(170, 170, 170); font-size: 12.6px; font-weight: normal;"><tspan x="0" dy="0">700</tspan></text></g><g transform="translate(486.2079162597656, 334.8401184082031)" style="opacity: 1;"><line y2="7" style="stroke: rgb(238, 238, 238); stroke-width: 1.5;"/><text text-anchor="end" transform="translate(0,10.5) rotate(-45,0,0) translate(0,8.316)" style="user-select: none; cursor: default; fill: rgb(170, 170, 170); font-size: 12.6px; font-weight: normal; opacity: 0;"><tspan x="0" dy="0">600</tspan></text></g><g transform="translate(468.15277099609375, 334.8401184082031)" style="opacity: 1;"><line y2="7" style="stroke: rgb(238, 238, 238); stroke-width: 1.5;"/><text text-anchor="end" transform="translate(0,10.5) rotate(-45,0,0) translate(0,8.316)" style="user-select: none; cursor: default; fill: rgb(170, 170, 170); font-size: 12.6px; font-weight: normal;"><tspan x="0" dy="0">500</tspan></text></g><g transform="translate(446.0550537109375, 334.8401184082031)" style="opacity: 1;"><line y2="7" style="stroke: rgb(238, 238, 238); stroke-width: 1.5;"/><text text-anchor="end" transform="translate(0,10.5) rotate(-45,0,0) translate(0,8.316)" style="user-select: none; cursor: default; fill: rgb(170, 170, 170); font-size: 12.6px; font-weight: normal; opacity: 0;"><tspan x="0" dy="0">400</tspan></text></g><g transform="translate(417.5661315917969, 334.8401184082031)" style="opacity: 1;"><line y2="7" style="stroke: rgb(238, 238, 238); stroke-width: 1.5;"/><text text-anchor="end" transform="translate(0,10.5) rotate(-45,0,0) translate(0,8.316)" style="user-select: none; cursor: default; fill: rgb(170, 170, 170); font-size: 12.6px; font-weight: normal;"><tspan x="0" dy="0">300</tspan></text></g><g transform="translate(377.4132385253906, 334.8401184082031)" style="opacity: 1;"><line y2="7" style="stroke: rgb(238, 238, 238); stroke-width: 1.5;"/><text text-anchor="end" transform="translate(0,10.5) rotate(-45,0,0) translate(0,8.316)" style="user-select: none; cursor: default; fill: rgb(170, 170, 170); font-size: 12.6px; font-weight: normal;"><tspan x="0" dy="0">200</tspan></text></g><g transform="translate(308.7714538574219, 334.8401184082031)" style="opacity: 1;"><line y2="7" style="stroke: rgb(238, 238, 238); stroke-width: 1.5;"/><text text-anchor="end" transform="translate(0,10.5) rotate(-45,0,0) translate(0,8.316)" style="user-select: none; cursor: default; fill: rgb(170, 170, 170); font-size: 12.6px; font-weight: normal;"><tspan x="0" dy="0">100</tspan></text></g><g transform="translate(298.3376770019531, 334.8401184082031)" style="opacity: 1;"><line y2="7" style="stroke: rgb(238, 238, 238); stroke-width: 1.5;"/><text text-anchor="end" transform="translate(0,10.5) rotate(-45,0,0) translate(0,8.316)" style="user-select: none; cursor: default; fill: rgb(170, 170, 170); font-size: 12.6px; font-weight: normal; opacity: 0;"><tspan x="0" dy="0">90</tspan></text></g><g transform="translate(286.6737365722656, 334.8401184082031)" style="opacity: 1;"><line y2="7" style="stroke: rgb(238, 238, 238); stroke-width: 1.5;"/><text text-anchor="end" transform="translate(0,10.5) rotate(-45,0,0) translate(0,8.316)" style="user-select: none; cursor: default; fill: rgb(170, 170, 170); font-size: 12.6px; font-weight: normal; opacity: 0;"><tspan x="0" dy="0">80</tspan></text></g><g transform="translate(273.4502258300781, 334.8401184082031)" style="opacity: 1;"><line y2="7" style="stroke: rgb(238, 238, 238); stroke-width: 1.5;"/><text text-anchor="end" transform="translate(0,10.5) rotate(-45,0,0) translate(0,8.316)" style="user-select: none; cursor: default; fill: rgb(170, 170, 170); font-size: 12.6px; font-weight: normal;"><tspan x="0" dy="0">70</tspan></text></g><g transform="translate(258.184814453125, 334.8401184082031)" style="opacity: 1;"><line y2="7" style="stroke: rgb(238, 238, 238); stroke-width: 1.5;"/><text text-anchor="end" transform="translate(0,10.5) rotate(-45,0,0) translate(0,8.316)" style="user-select: none; cursor: default; fill: rgb(170, 170, 170); font-size: 12.6px; font-weight: normal; opacity: 0;"><tspan x="0" dy="0">60</tspan></text></g><g transform="translate(240.12965393066406, 334.8401184082031)" style="opacity: 1;"><line y2="7" style="stroke: rgb(238, 238, 238); stroke-width: 1.5;"/><text text-anchor="end" transform="translate(0,10.5) rotate(-45,0,0) translate(0,8.316)" style="user-select: none; cursor: default; fill: rgb(170, 170, 170); font-size: 12.6px; font-weight: normal;"><tspan x="0" dy="0">50</tspan></text></g><g transform="translate(218.0319366455078, 334.8401184082031)" style="opacity: 1;"><line y2="7" style="stroke: rgb(238, 238, 238); stroke-width: 1.5;"/><text text-anchor="end" transform="translate(0,10.5) rotate(-45,0,0) translate(0,8.316)" style="user-select: none; cursor: default; fill: rgb(170, 170, 170); font-size: 12.6px; font-weight: normal;"><tspan x="0" dy="0">40</tspan></text></g><g transform="translate(189.5430145263672, 334.8401184082031)" style="opacity: 1;"><line y2="7" style="stroke: rgb(238, 238, 238); stroke-width: 1.5;"/><text text-anchor="end" transform="translate(0,10.5) rotate(-45,0,0) translate(0,8.316)" style="user-select: none; cursor: default; fill: rgb(170, 170, 170); font-size: 12.6px; font-weight: normal;"><tspan x="0" dy="0">30</tspan></text></g><g transform="translate(149.39013671875, 334.8401184082031)" style="opacity: 1;"><line y2="7" style="stroke: rgb(238, 238, 238); stroke-width: 1.5;"/><text text-anchor="end" transform="translate(0,10.5) rotate(-45,0,0) translate(0,8.316)" style="user-select: none; cursor: default; fill: rgb(170, 170, 170); font-size: 12.6px; font-weight: normal;"><tspan x="0" dy="0">20</tspan></text></g><g transform="translate(80.74835205078125, 334.8401184082031)" style="opacity: 1;"><line y2="7" style="stroke: rgb(238, 238, 238); stroke-width: 1.5;"/><text text-anchor="end" transform="translate(0,10.5) rotate(-45,0,0) translate(0,8.316)" style="user-select: none; cursor: default; fill: rgb(170, 170, 170); font-size: 12.6px; font-weight: normal;"><tspan x="0" dy="0">10</tspan></text></g></g><g class="fl-axis-title"><text text-anchor="middle" style="font-size: 15.4px; fill: rgb(170, 170, 170); font-weight: normal; user-select: none; cursor: default;" x="422.78300567496854" y="389.4125" dy="15.400000000000002">Number of adoptees</text></g></g><g class="fl-axis fl-x-axis fl-top-axis"><g class="fl-axis-line"/><g class="fl-axis-ticks"/><g class="fl-axis-title"/></g></g><g class="fl-y-axes"><g class="fl-axis fl-y-axis fl-left-axis"><g class="fl-axis-line"><line x1="80.74834899902343" x2="80.74834899902343" y1="334.840130323125" y2="7.2" style="shape-rendering: crispedges; stroke-linecap: square; stroke-width: 1.5; opacity: 1; stroke: rgb(238, 238, 238);"/></g><g class="fl-axis-ticks"><g transform="translate(80.74835205078125, 334.8401184082031)" style="opacity: 1;"><line x2="-7" style="stroke: rgb(238, 238, 238); stroke-width: 1.5;"/><text text-anchor="end" transform="translate(-10.5,4.158)" style="user-select: none; cursor: default; fill: rgb(170, 170, 170); font-size: 12.6px; font-weight: normal;"><tspan x="0" dy="0">0</tspan></text></g><g transform="translate(80.74835205078125, 54.005733489990234)" style="opacity: 1;"><line x2="-7" style="stroke: rgb(238, 238, 238); stroke-width: 1.5;"/><text text-anchor="end" transform="translate(-10.5,4.158)" style="user-select: none; cursor: default; fill: rgb(170, 170, 170); font-size: 12.6px; font-weight: normal;"><tspan x="0" dy="0">30,000</tspan></text></g><g transform="translate(80.74835205078125, 147.61720275878906)" style="opacity: 1;"><line x2="-7" style="stroke: rgb(238, 238, 238); stroke-width: 1.5;"/><text text-anchor="end" transform="translate(-10.5,4.158)" style="user-select: none; cursor: default; fill: rgb(170, 170, 170); font-size: 12.6px; font-weight: normal;"><tspan x="0" dy="0">20,000</tspan></text></g><g transform="translate(80.74835205078125, 241.22866821289062)" style="opacity: 1;"><line x2="-7" style="stroke: rgb(238, 238, 238); stroke-width: 1.5;"/><text text-anchor="end" transform="translate(-10.5,4.158)" style="user-select: none; cursor: default; fill: rgb(170, 170, 170); font-size: 12.6px; font-weight: normal;"><tspan x="0" dy="0">10,000</tspan></text></g><g transform="translate(80.74835205078125, 288.0343933105469)" style="opacity: 1;"><line x2="-7" style="stroke: rgb(238, 238, 238); stroke-width: 1.5;"/><text text-anchor="end" transform="translate(-10.5,4.158)" style="user-select: none; cursor: default; fill: rgb(170, 170, 170); font-size: 12.6px; font-weight: normal;"><tspan x="0" dy="0">5000</tspan></text></g><g transform="translate(80.74834899902343,7.2)" style="opacity: 1;"><line x2="-7" style="stroke: rgb(238, 238, 238); stroke-width: 1.5;"/><text text-anchor="end" transform="translate(-10.5,4.158)" style="user-select: none; cursor: default; fill: rgb(170, 170, 170); font-size: 12.6px; font-weight: normal;"><tspan x="0" dy="0">35,000</tspan></text></g><g transform="translate(80.74835205078125, 100.81146240234375)" style="opacity: 1;"><line x2="-7" style="stroke: rgb(238, 238, 238); stroke-width: 1.5;"/><text text-anchor="end" transform="translate(-10.5,4.158)" style="user-select: none; cursor: default; fill: rgb(170, 170, 170); font-size: 12.6px; font-weight: normal;"><tspan x="0" dy="0">25,000</tspan></text></g><g transform="translate(80.74835205078125, 194.4229278564453)" style="opacity: 1;"><line x2="-7" style="stroke: rgb(238, 238, 238); stroke-width: 1.5;"/><text text-anchor="end" transform="translate(-10.5,4.158)" style="user-select: none; cursor: default; fill: rgb(170, 170, 170); font-size: 12.6px; font-weight: normal;"><tspan x="0" dy="0">15,000</tspan></text></g></g><g class="fl-axis-title"><text text-anchor="middle" style="font-size: 15.4px; fill: rgb(170, 170, 170); font-weight: normal; user-select: none; cursor: default;" transform="translate(22.318004608154297, 171.0200653076172) rotate(-90)">GDP (USD)</text></g></g><g class="fl-axis fl-y-axis fl-right-axis"><g class="fl-axis-line"/><g class="fl-axis-ticks"/><g class="fl-axis-title"/></g></g></g><g class="fl-data-foreground" clip-path="url(#fl-chart-layout-3-clip-path)"/></g><text class="facet-title" y="0" font-size="1.25rem" font-weight="bold" dominant-baseline="middle" x="80.74834899902343" clip-path="url(#facet-clip-0-79)" fill="rgb(136, 136, 136)" opacity="0"/></g></g><g class="fits"/><g class="violins"/><g class="lines"/><g class="data-points"><path class="data-point" d="M5.374814259667385,0A5.374814259667385,5.374814259667385,0,1,1,-5.374814259667385,0A5.374814259667385,5.374814259667385,0,1,1,5.374814259667385,0" vector-effect="non-scaling-stroke" stroke="rgb(228, 130, 104)" fill="rgb(228, 130, 104)" fill-opacity="0.7" stroke-opacity="0" stroke-width="1" transform="translate(316.3928527832031, 234.43287658691406) scale(1.0921337604522705,1.0921337604522705)" tabindex="0" id="dot-0"/><path class="data-point" d="M8.913121108584278,0A8.913121108584278,8.913121108584278,0,1,1,-8.913121108584278,0A8.913121108584278,8.913121108584278,0,1,1,8.913121108584278,0" vector-effect="non-scaling-stroke" stroke="rgb(103, 0, 31)" fill="rgb(103, 0, 31)" fill-opacity="0.7" stroke-opacity="0" stroke-width="1" transform="translate(416.57086181640625, 291.6983947753906) scale(1.0921337604522705,1.0921337604522705)" tabindex="0" id="dot-1"/><path class="data-point" d="M2.132436186229231,0A2.132436186229231,2.132436186229231,0,1,1,-2.132436186229231,0A2.132436186229231,2.132436186229231,0,1,1,2.132436186229231,0" vector-effect="non-scaling-stroke" stroke="rgb(103, 0, 31)" fill="rgb(103, 0, 31)" fill-opacity="0.7" stroke-opacity="0" stroke-width="1" transform="translate(133.2960205078125, 269.488037109375) scale(1.0921337604522705,1.0921337604522705)" tabindex="0" id="dot-2"/><path class="data-point" d="M3.800567610628961,0A3.800567610628961,3.800567610628961,0,1,1,-3.800567610628961,0A3.800567610628961,3.800567610628961,0,1,1,3.800567610628961,0" vector-effect="non-scaling-stroke" stroke="rgb(103, 0, 31)" fill="rgb(103, 0, 31)" fill-opacity="0.7" stroke-opacity="0" stroke-width="1" transform="translate(247.7510528564453, 331.71307373046875) scale(1.0921337604522705,1.0921337604522705)" tabindex="0" id="dot-3"/><path class="data-point" d="M2.132436186229231,0A2.132436186229231,2.132436186229231,0,1,1,-2.132436186229231,0A2.132436186229231,2.132436186229231,0,1,1,2.132436186229231,0" vector-effect="non-scaling-stroke" stroke="rgb(107, 172, 208)" fill="rgb(107, 172, 208)" fill-opacity="0.7" stroke-opacity="0" stroke-width="1" transform="translate(133.2960205078125, 173.52345275878906) scale(1.0921337604522705,1.0921337604522705)" tabindex="0" id="dot-4"/><path class="data-point" d="M8.095331267586085,0A8.095331267586085,8.095331267586085,0,1,1,-8.095331267586085,0A8.095331267586085,8.095331267586085,0,1,1,8.095331267586085,0" vector-effect="non-scaling-stroke" stroke="rgb(103, 0, 31)" fill="rgb(103, 0, 31)" fill-opacity="0.7" stroke-opacity="0" stroke-width="1" transform="translate(397.51031494140625, 327.7158508300781) scale(1.0921337604522705,1.0921337604522705)" tabindex="0" id="dot-5"/><path class="data-point" d="M2.312951790738881,0A2.312951790738881,2.312951790738881,0,1,1,-2.312951790738881,0A2.312951790738881,2.312951790738881,0,1,1,2.312951790738881,0" vector-effect="non-scaling-stroke" stroke="rgb(103, 0, 31)" fill="rgb(103, 0, 31)" fill-opacity="0.7" stroke-opacity="0" stroke-width="1" transform="translate(149.39013671875, 300.3158874511719) scale(1.0921337604522705,1.0921337604522705)" tabindex="0" id="dot-6"/><path class="data-point" d="M2.7367214656948695,0A2.7367214656948695,2.7367214656948695,0,1,1,-2.7367214656948695,0A2.7367214656948695,2.7367214656948695,0,1,1,2.7367214656948695,0" vector-effect="non-scaling-stroke" stroke="rgb(107, 172, 208)" fill="rgb(107, 172, 208)" fill-opacity="0.7" stroke-opacity="0" stroke-width="1" transform="translate(182.71070861816406, 150.86911010742188) scale(1.0921337604522705,1.0921337604522705)" tabindex="0" id="dot-7"/><path class="data-point" d="M2.6874071298336926,0A2.6874071298336926,2.6874071298336926,0,1,1,-2.6874071298336926,0A2.6874071298336926,2.6874071298336926,0,1,1,2.6874071298336926,0" vector-effect="non-scaling-stroke" stroke="rgb(103, 0, 31)" fill="rgb(103, 0, 31)" fill-opacity="0.7" stroke-opacity="0" stroke-width="1" transform="translate(179.1092529296875, 342.5151672363281) scale(1.0921337604522705,1.0921337604522705)" tabindex="0" id="dot-8"/><path class="data-point" d="M2.6874071298336926,0A2.6874071298336926,2.6874071298336926,0,1,1,-2.6874071298336926,0A2.6874071298336926,2.6874071298336926,0,1,1,2.6874071298336926,0" vector-effect="non-scaling-stroke" stroke="rgb(228, 130, 104)" fill="rgb(228, 130, 104)" fill-opacity="0.7" stroke-opacity="0" stroke-width="1" transform="translate(179.1092529296875, 254.80104064941406) scale(1.0921337604522705,1.0921337604522705)" tabindex="0" id="dot-9"/><path class="data-point" d="M2.8327758434834363,0A2.8327758434834363,2.8327758434834363,0,1,1,-2.8327758434834363,0A2.8327758434834363,2.8327758434834363,0,1,1,2.8327758434834363,0" vector-effect="non-scaling-stroke" stroke="rgb(103, 0, 31)" fill="rgb(103, 0, 31)" fill-opacity="0.7" stroke-opacity="0" stroke-width="1" transform="translate(189.5430145263672, 313.31103515625) scale(1.0921337604522705,1.0921337604522705)" tabindex="0" id="dot-10"/><path class="data-point" d="M5.448953131002889,0A5.448953131002889,5.448953131002889,0,1,1,-5.448953131002889,0A5.448953131002889,5.448953131002889,0,1,1,5.448953131002889,0" vector-effect="non-scaling-stroke" stroke="rgb(103, 0, 31)" fill="rgb(103, 0, 31)" fill-opacity="0.7" stroke-opacity="0" stroke-width="1" transform="translate(319.10614013671875, 329.5023498535156) scale(1.0921337604522705,1.0921337604522705)" tabindex="0" id="dot-11"/><path class="data-point" d="M4.264872372458462,0A4.264872372458462,4.264872372458462,0,1,1,-4.264872372458462,0A4.264872372458462,4.264872372458462,0,1,1,4.264872372458462,0" vector-effect="non-scaling-stroke" stroke="rgb(103, 0, 31)" fill="rgb(103, 0, 31)" fill-opacity="0.7" stroke-opacity="0" stroke-width="1" transform="translate(270.5796203613281, 316.4455871582031) scale(1.0921337604522705,1.0921337604522705)" tabindex="0" id="dot-12"/><path class="data-point" d="M21.850968611841584,0A21.850968611841584,21.850968611841584,0,1,1,-21.850968611841584,0A21.850968611841584,21.850968611841584,0,1,1,21.850968611841584,0" vector-effect="non-scaling-stroke" stroke="rgb(103, 0, 31)" fill="rgb(103, 0, 31)" fill-opacity="0.7" stroke-opacity="0" stroke-width="1" transform="translate(594.1738891601562, 344.3464050292969) scale(1.0921337604522705,1.0921337604522705)" tabindex="0" id="dot-13"/><path class="data-point" d="M6.459722803108592,0A6.459722803108592,6.459722803108592,0,1,1,-6.459722803108592,0A6.459722803108592,6.459722803108592,0,1,1,6.459722803108592,0" vector-effect="non-scaling-stroke" stroke="rgb(5, 48, 97)" fill="rgb(5, 48, 97)" fill-opacity="0.7" stroke-opacity="0" stroke-width="1" transform="translate(352.8083190917969, 21.220781326293945) scale(1.0921337604522705,1.0921337604522705)" tabindex="0" id="dot-14"/><path class="data-point" d="M3.583209506444924,0A3.583209506444924,3.583209506444924,0,1,1,-3.583209506444924,0A3.583209506444924,3.583209506444924,0,1,1,3.583209506444924,0" vector-effect="non-scaling-stroke" stroke="rgb(5, 48, 97)" fill="rgb(5, 48, 97)" fill-opacity="0.7" stroke-opacity="0" stroke-width="1" transform="translate(236.08709716796875, 39.3699836730957) scale(1.0921337604522705,1.0921337604522705)" tabindex="0" id="dot-15"/><path class="data-point" d="M3.1881840244779114,0A3.1881840244779114,3.1881840244779114,0,1,1,-3.1881840244779114,0A3.1881840244779114,3.1881840244779114,0,1,1,3.1881840244779114,0" vector-effect="non-scaling-stroke" stroke="rgb(103, 0, 31)" fill="rgb(103, 0, 31)" fill-opacity="0.7" stroke-opacity="0" stroke-width="1" transform="translate(212.95240783691406, 282.6925048828125) scale(1.0921337604522705,1.0921337604522705)" tabindex="0" id="dot-16"/><path class="data-point" d="M21.850968611841584,0A21.850968611841584,21.850968611841584,0,1,1,-21.850968611841584,0A21.850968611841584,21.850968611841584,0,1,1,21.850968611841584,0" vector-effect="non-scaling-stroke" stroke="rgb(103, 0, 31)" fill="rgb(103, 0, 31)" fill-opacity="0.7" stroke-opacity="0" stroke-width="1" transform="translate(594.1738891601562, 303.5736389160156) scale(1.0921337604522705,1.0921337604522705)" tabindex="0" id="dot-17"/></g><g id="axes-highlights"><g class="axis-highlights-facet" opacity="1"><defs><pattern class="fl-pattern-auto" width="4" height="4" patternUnits="userSpaceOnUse" id="fl-pattern-diagonal-x"><path stroke-width="1" shape-rendering="auto" stroke-linecap="square" d="M 0 4 l 4 -4 M -1 1 l 2 -2 M 3 5 l 2 -2" style="stroke: currentcolor;"/></pattern><pattern class="fl-pattern-auto" width="4" height="4" patternUnits="userSpaceOnUse" id="fl-pattern-dots-x"><path stroke-width="1" shape-rendering="auto" stroke-linecap="square" d="M 1 2 A 1.2 1.2 0 1 1 1 2.1 Z" style="fill: currentcolor;"/></pattern><pattern class="fl-pattern-auto" width="4" height="4" patternUnits="userSpaceOnUse" id="fl-pattern-grid-x"><path stroke-width="1" shape-rendering="auto" stroke-linecap="square" d="M 2 0 l 0 4 M 0 2 l 4 0" style="stroke: currentcolor;"/></pattern><pattern class="fl-pattern-auto" width="4" height="4" patternUnits="userSpaceOnUse" id="fl-pattern-diagonal-y"><path stroke-width="1" shape-rendering="auto" stroke-linecap="square" d="M 0 4 l 4 -4 M -1 1 l 2 -2 M 3 5 l 2 -2" style="stroke: currentcolor;"/></pattern><pattern class="fl-pattern-auto" width="4" height="4" patternUnits="userSpaceOnUse" id="fl-pattern-grid-y"><path stroke-width="1" shape-rendering="auto" stroke-linecap="square" d="M 2 0 l 0 4 M 0 2 l 4 0" style="stroke: currentcolor;"/></pattern><pattern class="fl-pattern-auto" width="4" height="4" patternUnits="userSpaceOnUse" id="fl-pattern-dots-y"><path stroke-width="1" shape-rendering="auto" stroke-linecap="square" d="M 1 2 A 1.2 1.2 0 1 1 1 2.1 Z" style="fill: currentcolor;"/></pattern></defs><g class="axis-highlights" style="opacity: 1;" transform="translate(0, 14)"/></g></g></svg><svg xmlns="http://www.w3.org/2000/svg" id="overlay" fill="currentColor" style="position: absolute;" width="775" height="430.8125" x="10.5" y="133.6875"><g class="data-labels"><text dominant-baseline="middle" class="data-label" transform="translate(325.2628479003906, 234.43287658691406)" pointer-events="none" text-anchor="start" paint-order="stroke" stroke="#ffffff" stroke-width="2.4" font-size="12" fill="rgb(228, 130, 104)"><tspan x="0" y="0">Bulgaria</tspan></text><text dominant-baseline="middle" class="data-label" transform="translate(403.8365173339844, 291.6983947753906)" pointer-events="none" text-anchor="end" paint-order="stroke" stroke="#ffffff" stroke-width="2.4" font-size="12" fill="rgb(103, 0, 31)"><tspan x="0" y="0">Colombia</tspan></text><text dominant-baseline="middle" class="data-label" transform="translate(138.62493896484375, 269.488037109375)" pointer-events="none" text-anchor="start" paint-order="stroke" stroke="#ffffff" stroke-width="2.4" font-size="12" fill="rgb(103, 0, 31)"><tspan x="0" y="0">Dominican Republic</tspan></text><text dominant-baseline="middle" class="data-label" transform="translate(254.9017791748047, 331.71307373046875)" pointer-events="none" text-anchor="start" paint-order="stroke" stroke="#ffffff" stroke-width="2.4" font-size="12" fill="rgb(103, 0, 31)"><tspan x="0" y="0">Haiti</tspan></text><text dominant-baseline="middle" class="data-label" transform="translate(138.62493896484375, 173.52345275878906)" pointer-events="none" text-anchor="start" paint-order="stroke" stroke="#ffffff" stroke-width="2.4" font-size="12" fill="rgb(107, 172, 208)"><tspan x="0" y="0">Hungary</tspan></text><text dominant-baseline="middle" class="data-label" transform="translate(385.66912841796875, 327.7158508300781)" pointer-events="none" text-anchor="end" paint-order="stroke" stroke="#ffffff" stroke-width="2.4" font-size="12" fill="rgb(103, 0, 31)"><tspan x="0" y="0">India</tspan></text><text dominant-baseline="middle" class="data-label" transform="translate(154.91619873046875, 300.3158874511719)" pointer-events="none" text-anchor="start" paint-order="stroke" stroke="#ffffff" stroke-width="2.4" font-size="12" fill="rgb(103, 0, 31)"><tspan x="0" y="0">Jamaica</tspan></text><text dominant-baseline="middle" class="data-label" transform="translate(188.6995849609375, 150.86911010742188)" pointer-events="none" text-anchor="start" paint-order="stroke" stroke="#ffffff" stroke-width="2.4" font-size="12" fill="rgb(107, 172, 208)"><tspan x="0" y="0">Latvia</tspan></text><text dominant-baseline="middle" class="data-label" transform="translate(185.0442657470703, 342.5151672363281)" pointer-events="none" text-anchor="start" paint-order="stroke" stroke="#ffffff" stroke-width="2.4" font-size="12" fill="rgb(103, 0, 31)"><tspan x="0" y="0">Liberia</tspan></text><text dominant-baseline="middle" class="data-label" transform="translate(185.0442657470703, 254.80104064941406)" pointer-events="none" text-anchor="start" paint-order="stroke" stroke="#ffffff" stroke-width="2.4" font-size="12" fill="rgb(228, 130, 104)"><tspan x="0" y="0">Mexico</tspan></text><text dominant-baseline="middle" class="data-label" transform="translate(195.6367950439453, 313.31103515625)" pointer-events="none" text-anchor="start" paint-order="stroke" stroke="#ffffff" stroke-width="2.4" font-size="12" fill="rgb(103, 0, 31)"><tspan x="0" y="0">Morocco</tspan></text><text dominant-baseline="middle" class="data-label" transform="translate(328.05712890625, 329.5023498535156)" pointer-events="none" text-anchor="start" paint-order="stroke" stroke="#ffffff" stroke-width="2.4" font-size="12" fill="rgb(103, 0, 31)"><tspan x="0" y="0">Nigeria</tspan></text><text dominant-baseline="middle" class="data-label" transform="translate(278.2374267578125, 316.4455871582031)" pointer-events="none" text-anchor="start" paint-order="stroke" stroke="#ffffff" stroke-width="2.4" font-size="12" fill="rgb(103, 0, 31)"><tspan x="0" y="0">Philippines</tspan></text><text dominant-baseline="middle" class="data-label" transform="translate(567.3096923828125, 344.3464050292969)" pointer-events="none" text-anchor="end" paint-order="stroke" stroke="#ffffff" stroke-width="2.4" font-size="12" fill="rgb(103, 0, 31)"><tspan x="0" y="0">Sierra Leone</tspan></text><text dominant-baseline="middle" class="data-label" transform="translate(362.86322021484375, 21.220781326293945)" pointer-events="none" text-anchor="start" paint-order="stroke" stroke="#ffffff" stroke-width="2.4" font-size="12" fill="rgb(5, 48, 97)"><tspan x="0" y="0">South Korea</tspan></text><text dominant-baseline="middle" class="data-label" transform="translate(243.0004425048828, 39.3699836730957)" pointer-events="none" text-anchor="start" paint-order="stroke" stroke="#ffffff" stroke-width="2.4" font-size="12" fill="rgb(5, 48, 97)"><tspan x="0" y="0">Taiwan</tspan></text><text dominant-baseline="middle" class="data-label" transform="translate(219.434326171875, 282.6925048828125)" pointer-events="none" text-anchor="start" paint-order="stroke" stroke="#ffffff" stroke-width="2.4" font-size="12" fill="rgb(103, 0, 31)"><tspan x="0" y="0">Thailand</tspan></text><text dominant-baseline="middle" class="data-label" transform="translate(567.3096923828125, 303.5736389160156)" pointer-events="none" text-anchor="end" paint-order="stroke" stroke="#ffffff" stroke-width="2.4" font-size="12" fill="rgb(103, 0, 31)"><tspan x="0" y="0">Ukraine</tspan></text></g><g class="boxes"/></svg><svg xmlns="http://www.w3.org/2000/svg" id="fl-layout-svg-screenshot-container" class="flourish-screenshot-svg-container" style="left: 0px; top: 0px; width: 796px; height: 575px; position: absolute;" x="0" y="0"><text x="10.5px" y="10.5px" font-family="&quot;Source Sans Pro&quot;" font-size="22.4px" font-weight="700" fill="rgb(51, 51, 51)" style="dominant-baseline: text-before-edge;"><tspan dy="0" dx="0" x="10.5" opacity="1">GDP per capita Of Top 17 Countries To Export Children To the U.S. In 2022</tspan></text><text x="10.5px" y="37.375px" font-family="&quot;Source Sans Pro&quot;" font-size="22.4px" font-weight="400" fill="rgb(51, 51, 51)" style="dominant-baseline: text-before-edge;"><tspan dy="0" dx="0" x="10.5" opacity="1"/></text><text x="10.5px" y="37.375px" font-family="&quot;Source Sans Pro&quot;" font-size="16.8px" font-weight="400" fill="rgb(51, 51, 51)" style="dominant-baseline: text-before-edge;"><tspan dy="7" dx="0" x="10.5" opacity="1">South Korea has been a great source of children for intercountry adoption since 1953, especially to the U.S.</tspan><tspan dy="20.16px" dx="0" x="10.5" opacity="1">Hundreds of children are yet exported overseas despite its economic capability to protect them.</tspan></text><text x="10.5px" y="564.5px" font-family="&quot;Source Sans Pro&quot;" font-size="14px" font-weight="400" fill="rgb(51, 51, 51)" style="dominant-baseline: text-before-edge;"><tspan dy="0" dx="0" x="10.5" opacity="1"/></text></svg><svg xmlns="http://www.w3.org/2000/svg" id="fl-legend-continuous-color-0-svg-screenshot-container" class="flourish-screenshot-svg-container" style="left: 0px; top: 0px; width: 796px; height: 575px; position: absolute;" x="0" y="0"><text x="0px" y="0px" font-family="&quot;Source Sans Pro&quot;" font-size="14px" font-weight="700" fill="rgb(51, 51, 51)" style="dominant-baseline: text-before-edge;"><tspan dy="0" dx="0" x="0" opacity="1"/></text><text x="497.609375px" y="98.6875px" font-family="&quot;Source Sans Pro&quot;" font-size="14px" font-weight="700" fill="rgb(51, 51, 51)" style="dominant-baseline: text-before-edge;"><tspan dy="0" dx="0" x="497.609375" opacity="1">GDP (USD)</tspan></text><g><line stroke="rgb(103, 0, 31)" x1="612.2265625" y1="100.4375" x2="612.2265625" y2="114.4375"/><line stroke="rgb(103, 0, 31)" x1="613.2265625" y1="100.4375" x2="613.2265625" y2="114.4375"/><line stroke="rgb(103, 0, 31)" x1="614.2265625" y1="100.4375" x2="614.2265625" y2="114.4375"/><line stroke="rgb(103, 0, 31)" x1="615.2265625" y1="100.4375" x2="615.2265625" y2="114.4375"/><line stroke="rgb(103, 0, 31)" x1="616.2265625" y1="100.4375" x2="616.2265625" y2="114.4375"/><line stroke="rgb(103, 0, 31)" x1="617.2265625" y1="100.4375" x2="617.2265625" y2="114.4375"/><line stroke="rgb(103, 0, 31)" x1="618.2265625" y1="100.4375" x2="618.2265625" y2="114.4375"/><line stroke="rgb(103, 0, 31)" x1="619.2265625" y1="100.4375" x2="619.2265625" y2="114.4375"/><line stroke="rgb(103, 0, 31)" x1="620.2265625" y1="100.4375" x2="620.2265625" y2="114.4375"/><line stroke="rgb(103, 0, 31)" x1="621.2265625" y1="100.4375" x2="621.2265625" y2="114.4375"/><line stroke="rgb(103, 0, 31)" x1="622.2265625" y1="100.4375" x2="622.2265625" y2="114.4375"/><line stroke="rgb(103, 0, 31)" x1="623.2265625" y1="100.4375" x2="623.2265625" y2="114.4375"/><line stroke="rgb(103, 0, 31)" x1="624.2265625" y1="100.4375" x2="624.2265625" y2="114.4375"/><line stroke="rgb(103, 0, 31)" x1="625.2265625" y1="100.4375" x2="625.2265625" y2="114.4375"/><line stroke="rgb(103, 0, 31)" x1="626.2265625" y1="100.4375" x2="626.2265625" y2="114.4375"/><line stroke="rgb(103, 0, 31)" x1="627.2265625" y1="100.4375" x2="627.2265625" y2="114.4375"/><line stroke="rgb(103, 0, 31)" x1="628.2265625" y1="100.4375" x2="628.2265625" y2="114.4375"/><line stroke="rgb(103, 0, 31)" x1="629.2265625" y1="100.4375" x2="629.2265625" y2="114.4375"/><line stroke="rgb(103, 0, 31)" x1="630.2265625" y1="100.4375" x2="630.2265625" y2="114.4375"/><line stroke="rgb(103, 0, 31)" x1="631.2265625" y1="100.4375" x2="631.2265625" y2="114.4375"/><line stroke="rgb(103, 0, 31)" x1="632.2265625" y1="100.4375" x2="632.2265625" y2="114.4375"/><line stroke="rgb(103, 0, 31)" x1="633.2265625" y1="100.4375" x2="633.2265625" y2="114.4375"/><line stroke="rgb(103, 0, 31)" x1="634.2265625" y1="100.4375" x2="634.2265625" y2="114.4375"/><line stroke="rgb(103, 0, 31)" x1="635.2265625" y1="100.4375" x2="635.2265625" y2="114.4375"/><line stroke="rgb(103, 0, 31)" x1="636.2265625" y1="100.4375" x2="636.2265625" y2="114.4375"/><line stroke="rgb(103, 0, 31)" x1="637.2265625" y1="100.4375" x2="637.2265625" y2="114.4375"/><line stroke="rgb(103, 0, 31)" x1="638.2265625" y1="100.4375" x2="638.2265625" y2="114.4375"/><line stroke="rgb(103, 0, 31)" x1="639.2265625" y1="100.4375" x2="639.2265625" y2="114.4375"/><line stroke="rgb(228, 130, 104)" x1="640.2265625" y1="100.4375" x2="640.2265625" y2="114.4375"/><line stroke="rgb(228, 130, 104)" x1="641.2265625" y1="100.4375" x2="641.2265625" y2="114.4375"/><line stroke="rgb(228, 130, 104)" x1="642.2265625" y1="100.4375" x2="642.2265625" y2="114.4375"/><line stroke="rgb(228, 130, 104)" x1="643.2265625" y1="100.4375" x2="643.2265625" y2="114.4375"/><line stroke="rgb(228, 130, 104)" x1="644.2265625" y1="100.4375" x2="644.2265625" y2="114.4375"/><line stroke="rgb(228, 130, 104)" x1="645.2265625" y1="100.4375" x2="645.2265625" y2="114.4375"/><line stroke="rgb(228, 130, 104)" x1="646.2265625" y1="100.4375" x2="646.2265625" y2="114.4375"/><line stroke="rgb(228, 130, 104)" x1="647.2265625" y1="100.4375" x2="647.2265625" y2="114.4375"/><line stroke="rgb(228, 130, 104)" x1="648.2265625" y1="100.4375" x2="648.2265625" y2="114.4375"/><line stroke="rgb(228, 130, 104)" x1="649.2265625" y1="100.4375" x2="649.2265625" y2="114.4375"/><line stroke="rgb(228, 130, 104)" x1="650.2265625" y1="100.4375" x2="650.2265625" y2="114.4375"/><line stroke="rgb(228, 130, 104)" x1="651.2265625" y1="100.4375" x2="651.2265625" y2="114.4375"/><line stroke="rgb(228, 130, 104)" x1="652.2265625" y1="100.4375" x2="652.2265625" y2="114.4375"/><line stroke="rgb(228, 130, 104)" x1="653.2265625" y1="100.4375" x2="653.2265625" y2="114.4375"/><line stroke="rgb(228, 130, 104)" x1="654.2265625" y1="100.4375" x2="654.2265625" y2="114.4375"/><line stroke="rgb(228, 130, 104)" x1="655.2265625" y1="100.4375" x2="655.2265625" y2="114.4375"/><line stroke="rgb(228, 130, 104)" x1="656.2265625" y1="100.4375" x2="656.2265625" y2="114.4375"/><line stroke="rgb(228, 130, 104)" x1="657.2265625" y1="100.4375" x2="657.2265625" y2="114.4375"/><line stroke="rgb(228, 130, 104)" x1="658.2265625" y1="100.4375" x2="658.2265625" y2="114.4375"/><line stroke="rgb(228, 130, 104)" x1="659.2265625" y1="100.4375" x2="659.2265625" y2="114.4375"/><line stroke="rgb(228, 130, 104)" x1="660.2265625" y1="100.4375" x2="660.2265625" y2="114.4375"/><line stroke="rgb(228, 130, 104)" x1="661.2265625" y1="100.4375" x2="661.2265625" y2="114.4375"/><line stroke="rgb(228, 130, 104)" x1="662.2265625" y1="100.4375" x2="662.2265625" y2="114.4375"/><line stroke="rgb(228, 130, 104)" x1="663.2265625" y1="100.4375" x2="663.2265625" y2="114.4375"/><line stroke="rgb(228, 130, 104)" x1="664.2265625" y1="100.4375" x2="664.2265625" y2="114.4375"/><line stroke="rgb(228, 130, 104)" x1="665.2265625" y1="100.4375" x2="665.2265625" y2="114.4375"/><line stroke="rgb(228, 130, 104)" x1="666.2265625" y1="100.4375" x2="666.2265625" y2="114.4375"/><line stroke="rgb(228, 130, 104)" x1="667.2265625" y1="100.4375" x2="667.2265625" y2="114.4375"/><line stroke="rgb(107, 172, 208)" x1="668.2265625" y1="100.4375" x2="668.2265625" y2="114.4375"/><line stroke="rgb(107, 172, 208)" x1="669.2265625" y1="100.4375" x2="669.2265625" y2="114.4375"/><line stroke="rgb(107, 172, 208)" x1="670.2265625" y1="100.4375" x2="670.2265625" y2="114.4375"/><line stroke="rgb(107, 172, 208)" x1="671.2265625" y1="100.4375" x2="671.2265625" y2="114.4375"/><line stroke="rgb(107, 172, 208)" x1="672.2265625" y1="100.4375" x2="672.2265625" y2="114.4375"/><line stroke="rgb(107, 172, 208)" x1="673.2265625" y1="100.4375" x2="673.2265625" y2="114.4375"/><line stroke="rgb(107, 172, 208)" x1="674.2265625" y1="100.4375" x2="674.2265625" y2="114.4375"/><line stroke="rgb(107, 172, 208)" x1="675.2265625" y1="100.4375" x2="675.2265625" y2="114.4375"/><line stroke="rgb(107, 172, 208)" x1="676.2265625" y1="100.4375" x2="676.2265625" y2="114.4375"/><line stroke="rgb(107, 172, 208)" x1="677.2265625" y1="100.4375" x2="677.2265625" y2="114.4375"/><line stroke="rgb(107, 172, 208)" x1="678.2265625" y1="100.4375" x2="678.2265625" y2="114.4375"/><line stroke="rgb(107, 172, 208)" x1="679.2265625" y1="100.4375" x2="679.2265625" y2="114.4375"/><line stroke="rgb(107, 172, 208)" x1="680.2265625" y1="100.4375" x2="680.2265625" y2="114.4375"/><line stroke="rgb(107, 172, 208)" x1="681.2265625" y1="100.4375" x2="681.2265625" y2="114.4375"/><line stroke="rgb(107, 172, 208)" x1="682.2265625" y1="100.4375" x2="682.2265625" y2="114.4375"/><line stroke="rgb(107, 172, 208)" x1="683.2265625" y1="100.4375" x2="683.2265625" y2="114.4375"/><line stroke="rgb(107, 172, 208)" x1="684.2265625" y1="100.4375" x2="684.2265625" y2="114.4375"/><line stroke="rgb(107, 172, 208)" x1="685.2265625" y1="100.4375" x2="685.2265625" y2="114.4375"/><line stroke="rgb(107, 172, 208)" x1="686.2265625" y1="100.4375" x2="686.2265625" y2="114.4375"/><line stroke="rgb(107, 172, 208)" x1="687.2265625" y1="100.4375" x2="687.2265625" y2="114.4375"/><line stroke="rgb(107, 172, 208)" x1="688.2265625" y1="100.4375" x2="688.2265625" y2="114.4375"/><line stroke="rgb(107, 172, 208)" x1="689.2265625" y1="100.4375" x2="689.2265625" y2="114.4375"/><line stroke="rgb(107, 172, 208)" x1="690.2265625" y1="100.4375" x2="690.2265625" y2="114.4375"/><line stroke="rgb(107, 172, 208)" x1="691.2265625" y1="100.4375" x2="691.2265625" y2="114.4375"/><line stroke="rgb(107, 172, 208)" x1="692.2265625" y1="100.4375" x2="692.2265625" y2="114.4375"/><line stroke="rgb(107, 172, 208)" x1="693.2265625" y1="100.4375" x2="693.2265625" y2="114.4375"/><line stroke="rgb(107, 172, 208)" x1="694.2265625" y1="100.4375" x2="694.2265625" y2="114.4375"/><line stroke="rgb(107, 172, 208)" x1="695.2265625" y1="100.4375" x2="695.2265625" y2="114.4375"/><line stroke="rgb(5, 48, 97)" x1="696.2265625" y1="100.4375" x2="696.2265625" y2="114.4375"/><line stroke="rgb(5, 48, 97)" x1="697.2265625" y1="100.4375" x2="697.2265625" y2="114.4375"/><line stroke="rgb(5, 48, 97)" x1="698.2265625" y1="100.4375" x2="698.2265625" y2="114.4375"/><line stroke="rgb(5, 48, 97)" x1="699.2265625" y1="100.4375" x2="699.2265625" y2="114.4375"/><line stroke="rgb(5, 48, 97)" x1="700.2265625" y1="100.4375" x2="700.2265625" y2="114.4375"/><line stroke="rgb(5, 48, 97)" x1="701.2265625" y1="100.4375" x2="701.2265625" y2="114.4375"/><line stroke="rgb(5, 48, 97)" x1="702.2265625" y1="100.4375" x2="702.2265625" y2="114.4375"/><line stroke="rgb(5, 48, 97)" x1="703.2265625" y1="100.4375" x2="703.2265625" y2="114.4375"/><line stroke="rgb(5, 48, 97)" x1="704.2265625" y1="100.4375" x2="704.2265625" y2="114.4375"/><line stroke="rgb(5, 48, 97)" x1="705.2265625" y1="100.4375" x2="705.2265625" y2="114.4375"/><line stroke="rgb(5, 48, 97)" x1="706.2265625" y1="100.4375" x2="706.2265625" y2="114.4375"/><line stroke="rgb(5, 48, 97)" x1="707.2265625" y1="100.4375" x2="707.2265625" y2="114.4375"/><line stroke="rgb(5, 48, 97)" x1="708.2265625" y1="100.4375" x2="708.2265625" y2="114.4375"/><line stroke="rgb(5, 48, 97)" x1="709.2265625" y1="100.4375" x2="709.2265625" y2="114.4375"/><line stroke="rgb(5, 48, 97)" x1="710.2265625" y1="100.4375" x2="710.2265625" y2="114.4375"/><line stroke="rgb(5, 48, 97)" x1="711.2265625" y1="100.4375" x2="711.2265625" y2="114.4375"/><line stroke="rgb(5, 48, 97)" x1="712.2265625" y1="100.4375" x2="712.2265625" y2="114.4375"/><line stroke="rgb(5, 48, 97)" x1="713.2265625" y1="100.4375" x2="713.2265625" y2="114.4375"/><line stroke="rgb(5, 48, 97)" x1="714.2265625" y1="100.4375" x2="714.2265625" y2="114.4375"/><line stroke="rgb(5, 48, 97)" x1="715.2265625" y1="100.4375" x2="715.2265625" y2="114.4375"/><line stroke="rgb(5, 48, 97)" x1="716.2265625" y1="100.4375" x2="716.2265625" y2="114.4375"/><line stroke="rgb(5, 48, 97)" x1="717.2265625" y1="100.4375" x2="717.2265625" y2="114.4375"/><line stroke="rgb(5, 48, 97)" x1="718.2265625" y1="100.4375" x2="718.2265625" y2="114.4375"/><line stroke="rgb(5, 48, 97)" x1="719.2265625" y1="100.4375" x2="719.2265625" y2="114.4375"/><line stroke="rgb(5, 48, 97)" x1="720.2265625" y1="100.4375" x2="720.2265625" y2="114.4375"/><line stroke="rgb(5, 48, 97)" x1="721.2265625" y1="100.4375" x2="721.2265625" y2="114.4375"/><line stroke="rgb(5, 48, 97)" x1="722.2265625" y1="100.4375" x2="722.2265625" y2="114.4375"/><line stroke="rgb(5, 48, 97)" x1="723.2265625" y1="100.4375" x2="723.2265625" y2="114.4375"/><line stroke="rgb(5, 48, 97)" x1="724.2265625" y1="100.4375" x2="724.2265625" y2="114.4375"/></g><text x="568.3515625px" y="98.6875px" font-family="&quot;Source Sans Pro&quot;" font-size="14px" font-weight="400" fill="rgb(51, 51, 51)" style="dominant-baseline: text-before-edge;"><tspan dy="0" dx="0" x="568.3515625" opacity="1">480.04</tspan></text><text x="724.2265625px" y="98.6875px" font-family="&quot;Source Sans Pro&quot;" font-size="14px" font-weight="400" fill="rgb(51, 51, 51)" style="dominant-baseline: text-before-edge;"><tspan dy="0" dx="2.8" x="724.2265625" opacity="1">34,997.78</tspan></text></svg><svg xmlns="http://www.w3.org/2000/svg" class="flourish-panel-close" viewBox="0 0 40 40" style="width: 1.25rem; height: 1.25rem; position: absolute; right: 1rem; top: 1rem; cursor: pointer; opacity: 0;" x="0" y="0"><path stroke="#333333" stroke-width="0.5rem" stroke-linecap="round" d="M 10,10 L 30,30 M 30,10 L 10,30" style="stroke: rgb(51, 51, 51);"/></svg></svg>