<svg xmlns='http://www.w3.org/2000/svg' version='1.1' width='796px' height='575px'><svg xmlns="http://www.w3.org/2000/svg" id="graphic" fill="currentColor" font-family="Source Sans Pro" width="775" height="413.65625" x="10.5" y="150.84375"><g class="facets"><g class="fl-facets"><g class="fl-facet" transform="translate(31.373977661132812, 0)" opacity="1"><rect class="fl-facet-rect" width="705.2940521240234" height="370.7481530659441" fill="none"/><rect class="fl-facet-primary-rect" width="705.2940521240234" height="370.7481530659441" y="0" fill="none"/><g class="fl-facet-title"><rect class="fl-facet-title-bg" height="0" width="0" fill="rgb(238, 238, 238)" x="0" opacity="0"/><text class="fl-facet-title-text" font-size="14" font-weight="600" transform="translate(0, 14.700000000000001)" opacity="0" text-anchor="start"><tspan x="0" y="0" dx="0" text-anchor="start"/></text></g><g class="fl-facet-primary" transform="translate(0, 0)"><g class="fl-chart"><rect class="fl-chart-debug-rectangle" x="0" y="0" style="stroke-width: 1px; fill: none; display: none; stroke: red;" width="705.2940521240234" height="370.7481530659441"/><clipPath class="fl-data-clip-path" id="fl-chart-layout-1-clip-path"><rect x="0" y="8.1" width="705.2940521240234" height="362.6481530659441"/></clipPath><clipPath class="fl-grid-clip-path" id="fl-chart-layout-1-grid-clip-path"><rect x="-1.5" y="6.6" width="708.2940521240234" height="365.6481530659441"/></clipPath><g class="fl-chart-background"><rect class="fl-chart-fill" x="0" y="8.1" width="705.2940521240234" height="362.6481530659441" fill="none"/><image class="fl-chart-image" x="0" y="8.1" width="705.2940521240234" height="362.6481530659441" preserveAspectRatio="none"/><rect class="fl-chart-interaction" style="opacity: 0;" x="0" y="8.1" width="705.2940521240234" height="362.6481530659441"/></g><g class="fl-data-background" clip-path="url(#fl-chart-layout-1-clip-path)"/><g class="fl-gridlines" style="pointer-events: none;" clip-path="url(#fl-chart-layout-1-grid-clip-path)"><g class="fl-gridlines-vertical"/><g class="fl-gridlines-horizontal"><line x1="0" x2="705.2940521240234" y1="370.7481530659441" y2="370.7481530659441" style="shape-rendering: crispedges; opacity: 1; stroke: rgb(238, 238, 238); stroke-width: 1.5;"/><line x1="0" x2="705.2940521240234" y1="249.86543537729608" y2="249.86543537729608" style="shape-rendering: crispedges; opacity: 1; stroke: rgb(238, 238, 238); stroke-width: 1.5;"/><line x1="0" x2="705.2940521240234" y1="128.98271768864805" y2="128.98271768864805" style="shape-rendering: crispedges; opacity: 1; stroke: rgb(238, 238, 238); stroke-width: 1.5;"/><line x1="0" x2="705.2940521240234" y1="8.1" y2="8.1" style="shape-rendering: crispedges; opacity: 1; stroke: rgb(238, 238, 238); stroke-width: 1.5;"/></g></g><g class="fl-axes"><g class="fl-x-axes"><g class="fl-axis fl-x-axis fl-bottom-axis"><g class="fl-axis-line"><line x1="0" x2="705.2940521240234" y1="370.7481530659441" y2="370.7481530659441" style="shape-rendering: crispedges; stroke-linecap: square; stroke-width: 1.5; opacity: 1; stroke: rgb(238, 238, 238);"/></g><g class="fl-axis-ticks"><g transform="translate(693.9263916015625, 370.7481384277344)" style="opacity: 1;"><line y2="7" style="stroke: rgb(238, 238, 238); stroke-width: 1.5;"/><text text-anchor="end" transform="translate(0,10.5) rotate(-45,0,0) translate(0,9.24)" style="user-select: none; cursor: default; fill: rgb(74, 74, 74); font-size: 14px; font-weight: normal;"><tspan x="0" dy="0">1990</tspan></text></g><g transform="translate(671.1910400390625, 370.7481384277344)" style="opacity: 1;"><line y2="7" style="stroke: rgb(238, 238, 238); stroke-width: 1.5;"/><text text-anchor="end" transform="translate(0,10.5) rotate(-45,0,0) translate(0,9.24)" style="user-select: none; cursor: default; fill: rgb(74, 74, 74); font-size: 14px; font-weight: normal; opacity: 0;"><tspan x="0" dy="0">1989</tspan></text></g><g transform="translate(648.3933715820312, 370.7481384277344)" style="opacity: 1;"><line y2="7" style="stroke: rgb(238, 238, 238); stroke-width: 1.5;"/><text text-anchor="end" transform="translate(0,10.5) rotate(-45,0,0) translate(0,9.24)" style="user-select: none; cursor: default; fill: rgb(74, 74, 74); font-size: 14px; font-weight: normal;"><tspan x="0" dy="0">1988</tspan></text></g><g transform="translate(625.6580810546875, 370.7481384277344)" style="opacity: 1;"><line y2="7" style="stroke: rgb(238, 238, 238); stroke-width: 1.5;"/><text text-anchor="end" transform="translate(0,10.5) rotate(-45,0,0) translate(0,9.24)" style="user-select: none; cursor: default; fill: rgb(74, 74, 74); font-size: 14px; font-weight: normal; opacity: 0;"><tspan x="0" dy="0">1987</tspan></text></g><g transform="translate(602.9227294921875, 370.7481384277344)" style="opacity: 1;"><line y2="7" style="stroke: rgb(238, 238, 238); stroke-width: 1.5;"/><text text-anchor="end" transform="translate(0,10.5) rotate(-45,0,0) translate(0,9.24)" style="user-select: none; cursor: default; fill: rgb(74, 74, 74); font-size: 14px; font-weight: normal;"><tspan x="0" dy="0">1986</tspan></text></g><g transform="translate(580.1873779296875, 370.7481384277344)" style="opacity: 1;"><line y2="7" style="stroke: rgb(238, 238, 238); stroke-width: 1.5;"/><text text-anchor="end" transform="translate(0,10.5) rotate(-45,0,0) translate(0,9.24)" style="user-select: none; cursor: default; fill: rgb(74, 74, 74); font-size: 14px; font-weight: normal; opacity: 0;"><tspan x="0" dy="0">1985</tspan></text></g><g transform="translate(557.3897094726562, 370.7481384277344)" style="opacity: 1;"><line y2="7" style="stroke: rgb(238, 238, 238); stroke-width: 1.5;"/><text text-anchor="end" transform="translate(0,10.5) rotate(-45,0,0) translate(0,9.24)" style="user-select: none; cursor: default; fill: rgb(74, 74, 74); font-size: 14px; font-weight: normal;"><tspan x="0" dy="0">1984</tspan></text></g><g transform="translate(534.6543579101562, 370.7481384277344)" style="opacity: 1;"><line y2="7" style="stroke: rgb(238, 238, 238); stroke-width: 1.5;"/><text text-anchor="end" transform="translate(0,10.5) rotate(-45,0,0) translate(0,9.24)" style="user-select: none; cursor: default; fill: rgb(74, 74, 74); font-size: 14px; font-weight: normal; opacity: 0;"><tspan x="0" dy="0">1983</tspan></text></g><g transform="translate(511.9190368652344, 370.7481384277344)" style="opacity: 1;"><line y2="7" style="stroke: rgb(238, 238, 238); stroke-width: 1.5;"/><text text-anchor="end" transform="translate(0,10.5) rotate(-45,0,0) translate(0,9.24)" style="user-select: none; cursor: default; fill: rgb(74, 74, 74); font-size: 14px; font-weight: normal;"><tspan x="0" dy="0">1982</tspan></text></g><g transform="translate(489.1836853027344, 370.7481384277344)" style="opacity: 1;"><line y2="7" style="stroke: rgb(238, 238, 238); stroke-width: 1.5;"/><text text-anchor="end" transform="translate(0,10.5) rotate(-45,0,0) translate(0,9.24)" style="user-select: none; cursor: default; fill: rgb(74, 74, 74); font-size: 14px; font-weight: normal; opacity: 0;"><tspan x="0" dy="0">1981</tspan></text></g><g transform="translate(11.36767292022705, 370.7481384277344)" style="opacity: 1;"><line y2="7" style="stroke: rgb(238, 238, 238); stroke-width: 1.5;"/><text text-anchor="end" transform="translate(0,10.5) rotate(-45,0,0) translate(0,9.24)" style="user-select: none; cursor: default; fill: rgb(74, 74, 74); font-size: 14px; font-weight: normal;"><tspan x="0" dy="0">1960</tspan></text></g><g transform="translate(466.38604736328125, 370.7481384277344)" style="opacity: 1;"><line y2="7" style="stroke: rgb(238, 238, 238); stroke-width: 1.5;"/><text text-anchor="end" transform="translate(0,10.5) rotate(-45,0,0) translate(0,9.24)" style="user-select: none; cursor: default; fill: rgb(74, 74, 74); font-size: 14px; font-weight: normal;"><tspan x="0" dy="0">1980</tspan></text></g><g transform="translate(443.65069580078125, 370.7481384277344)" style="opacity: 1;"><line y2="7" style="stroke: rgb(238, 238, 238); stroke-width: 1.5;"/><text text-anchor="end" transform="translate(0,10.5) rotate(-45,0,0) translate(0,9.24)" style="user-select: none; cursor: default; fill: rgb(74, 74, 74); font-size: 14px; font-weight: normal; opacity: 0;"><tspan x="0" dy="0">1979</tspan></text></g><g transform="translate(34.16530990600586, 370.7481384277344)" style="opacity: 1;"><line y2="7" style="stroke: rgb(238, 238, 238); stroke-width: 1.5;"/><text text-anchor="end" transform="translate(0,10.5) rotate(-45,0,0) translate(0,9.24)" style="user-select: none; cursor: default; fill: rgb(74, 74, 74); font-size: 14px; font-weight: normal; opacity: 0;"><tspan x="0" dy="0">1961</tspan></text></g><g transform="translate(420.91534423828125, 370.7481384277344)" style="opacity: 1;"><line y2="7" style="stroke: rgb(238, 238, 238); stroke-width: 1.5;"/><text text-anchor="end" transform="translate(0,10.5) rotate(-45,0,0) translate(0,9.24)" style="user-select: none; cursor: default; fill: rgb(74, 74, 74); font-size: 14px; font-weight: normal;"><tspan x="0" dy="0">1978</tspan></text></g><g transform="translate(56.90065383911133, 370.7481384277344)" style="opacity: 1;"><line y2="7" style="stroke: rgb(238, 238, 238); stroke-width: 1.5;"/><text text-anchor="end" transform="translate(0,10.5) rotate(-45,0,0) translate(0,9.24)" style="user-select: none; cursor: default; fill: rgb(74, 74, 74); font-size: 14px; font-weight: normal;"><tspan x="0" dy="0">1962</tspan></text></g><g transform="translate(398.17999267578125, 370.7481384277344)" style="opacity: 1;"><line y2="7" style="stroke: rgb(238, 238, 238); stroke-width: 1.5;"/><text text-anchor="end" transform="translate(0,10.5) rotate(-45,0,0) translate(0,9.24)" style="user-select: none; cursor: default; fill: rgb(74, 74, 74); font-size: 14px; font-weight: normal; opacity: 0;"><tspan x="0" dy="0">1977</tspan></text></g><g transform="translate(79.63600158691406, 370.7481384277344)" style="opacity: 1;"><line y2="7" style="stroke: rgb(238, 238, 238); stroke-width: 1.5;"/><text text-anchor="end" transform="translate(0,10.5) rotate(-45,0,0) translate(0,9.24)" style="user-select: none; cursor: default; fill: rgb(74, 74, 74); font-size: 14px; font-weight: normal; opacity: 0;"><tspan x="0" dy="0">1963</tspan></text></g><g transform="translate(102.37134552001953, 370.7481384277344)" style="opacity: 1;"><line y2="7" style="stroke: rgb(238, 238, 238); stroke-width: 1.5;"/><text text-anchor="end" transform="translate(0,10.5) rotate(-45,0,0) translate(0,9.24)" style="user-select: none; cursor: default; fill: rgb(74, 74, 74); font-size: 14px; font-weight: normal;"><tspan x="0" dy="0">1964</tspan></text></g><g transform="translate(375.38238525390625, 370.7481384277344)" style="opacity: 1;"><line y2="7" style="stroke: rgb(238, 238, 238); stroke-width: 1.5;"/><text text-anchor="end" transform="translate(0,10.5) rotate(-45,0,0) translate(0,9.24)" style="user-select: none; cursor: default; fill: rgb(74, 74, 74); font-size: 14px; font-weight: normal;"><tspan x="0" dy="0">1976</tspan></text></g><g transform="translate(352.64703369140625, 370.7481384277344)" style="opacity: 1;"><line y2="7" style="stroke: rgb(238, 238, 238); stroke-width: 1.5;"/><text text-anchor="end" transform="translate(0,10.5) rotate(-45,0,0) translate(0,9.24)" style="user-select: none; cursor: default; fill: rgb(74, 74, 74); font-size: 14px; font-weight: normal; opacity: 0;"><tspan x="0" dy="0">1975</tspan></text></g><g transform="translate(125.16898345947266, 370.7481384277344)" style="opacity: 1;"><line y2="7" style="stroke: rgb(238, 238, 238); stroke-width: 1.5;"/><text text-anchor="end" transform="translate(0,10.5) rotate(-45,0,0) translate(0,9.24)" style="user-select: none; cursor: default; fill: rgb(74, 74, 74); font-size: 14px; font-weight: normal; opacity: 0;"><tspan x="0" dy="0">1965</tspan></text></g><g transform="translate(329.91168212890625, 370.7481384277344)" style="opacity: 1;"><line y2="7" style="stroke: rgb(238, 238, 238); stroke-width: 1.5;"/><text text-anchor="end" transform="translate(0,10.5) rotate(-45,0,0) translate(0,9.24)" style="user-select: none; cursor: default; fill: rgb(74, 74, 74); font-size: 14px; font-weight: normal;"><tspan x="0" dy="0">1974</tspan></text></g><g transform="translate(147.90432739257812, 370.7481384277344)" style="opacity: 1;"><line y2="7" style="stroke: rgb(238, 238, 238); stroke-width: 1.5;"/><text text-anchor="end" transform="translate(0,10.5) rotate(-45,0,0) translate(0,9.24)" style="user-select: none; cursor: default; fill: rgb(74, 74, 74); font-size: 14px; font-weight: normal;"><tspan x="0" dy="0">1966</tspan></text></g><g transform="translate(307.17633056640625, 370.7481384277344)" style="opacity: 1;"><line y2="7" style="stroke: rgb(238, 238, 238); stroke-width: 1.5;"/><text text-anchor="end" transform="translate(0,10.5) rotate(-45,0,0) translate(0,9.24)" style="user-select: none; cursor: default; fill: rgb(74, 74, 74); font-size: 14px; font-weight: normal; opacity: 0;"><tspan x="0" dy="0">1973</tspan></text></g><g transform="translate(170.63967895507812, 370.7481384277344)" style="opacity: 1;"><line y2="7" style="stroke: rgb(238, 238, 238); stroke-width: 1.5;"/><text text-anchor="end" transform="translate(0,10.5) rotate(-45,0,0) translate(0,9.24)" style="user-select: none; cursor: default; fill: rgb(74, 74, 74); font-size: 14px; font-weight: normal; opacity: 0;"><tspan x="0" dy="0">1967</tspan></text></g><g transform="translate(193.37503051757812, 370.7481384277344)" style="opacity: 1;"><line y2="7" style="stroke: rgb(238, 238, 238); stroke-width: 1.5;"/><text text-anchor="end" transform="translate(0,10.5) rotate(-45,0,0) translate(0,9.24)" style="user-select: none; cursor: default; fill: rgb(74, 74, 74); font-size: 14px; font-weight: normal;"><tspan x="0" dy="0">1968</tspan></text></g><g transform="translate(284.3786926269531, 370.7481384277344)" style="opacity: 1;"><line y2="7" style="stroke: rgb(238, 238, 238); stroke-width: 1.5;"/><text text-anchor="end" transform="translate(0,10.5) rotate(-45,0,0) translate(0,9.24)" style="user-select: none; cursor: default; fill: rgb(74, 74, 74); font-size: 14px; font-weight: normal;"><tspan x="0" dy="0">1972</tspan></text></g><g transform="translate(261.6433410644531, 370.7481384277344)" style="opacity: 1;"><line y2="7" style="stroke: rgb(238, 238, 238); stroke-width: 1.5;"/><text text-anchor="end" transform="translate(0,10.5) rotate(-45,0,0) translate(0,9.24)" style="user-select: none; cursor: default; fill: rgb(74, 74, 74); font-size: 14px; font-weight: normal; opacity: 0;"><tspan x="0" dy="0">1971</tspan></text></g><g transform="translate(216.1726531982422, 370.7481384277344)" style="opacity: 1;"><line y2="7" style="stroke: rgb(238, 238, 238); stroke-width: 1.5;"/><text text-anchor="end" transform="translate(0,10.5) rotate(-45,0,0) translate(0,9.24)" style="user-select: none; cursor: default; fill: rgb(74, 74, 74); font-size: 14px; font-weight: normal; opacity: 0;"><tspan x="0" dy="0">1969</tspan></text></g><g transform="translate(238.9080047607422, 370.7481384277344)" style="opacity: 1;"><line y2="7" style="stroke: rgb(238, 238, 238); stroke-width: 1.5;"/><text text-anchor="end" transform="translate(0,10.5) rotate(-45,0,0) translate(0,9.24)" style="user-select: none; cursor: default; fill: rgb(74, 74, 74); font-size: 14px; font-weight: normal;"><tspan x="0" dy="0">1970</tspan></text></g></g><g class="fl-axis-title"/></g><g class="fl-axis fl-x-axis fl-top-axis"><g class="fl-axis-line"/><g class="fl-axis-ticks"/><g class="fl-axis-title"/></g></g><g class="fl-y-axes"><g class="fl-axis fl-y-axis fl-left-axis"><g class="fl-axis-line"><line x1="0" x2="0" y1="370.7481530659441" y2="8.1" style="shape-rendering: crispedges; stroke-linecap: square; stroke-width: 1.5; opacity: 1; stroke: rgb(238, 238, 238);"/></g><g class="fl-axis-ticks"><g transform="translate(0, 370.7481384277344)" style="opacity: 1;"><line x2="-7" style="stroke: rgb(238, 238, 238); stroke-width: 1.5;"/><text text-anchor="end" transform="translate(-10.5,4.62)" style="user-select: none; cursor: default; fill: rgb(74, 74, 74); font-size: 14px; font-weight: normal;"><tspan x="0" dy="0">0</tspan></text></g><g transform="translate(0, 8.100000381469727)" style="opacity: 1;"><line x2="-7" style="stroke: rgb(238, 238, 238); stroke-width: 1.5;"/><text text-anchor="end" transform="translate(-10.5,4.62)" style="user-select: none; cursor: default; fill: rgb(74, 74, 74); font-size: 14px; font-weight: normal;"><tspan x="0" dy="0">300</tspan></text></g><g transform="translate(0, 128.9827117919922)" style="opacity: 1;"><line x2="-7" style="stroke: rgb(238, 238, 238); stroke-width: 1.5;"/><text text-anchor="end" transform="translate(-10.5,4.62)" style="user-select: none; cursor: default; fill: rgb(74, 74, 74); font-size: 14px; font-weight: normal;"><tspan x="0" dy="0">200</tspan></text></g><g transform="translate(0, 249.8654327392578)" style="opacity: 1;"><line x2="-7" style="stroke: rgb(238, 238, 238); stroke-width: 1.5;"/><text text-anchor="end" transform="translate(-10.5,4.62)" style="user-select: none; cursor: default; fill: rgb(74, 74, 74); font-size: 14px; font-weight: normal;"><tspan x="0" dy="0">100</tspan></text></g></g><g class="fl-axis-title"/></g><g class="fl-axis fl-y-axis fl-right-axis"><g class="fl-axis-line"><line x1="705.2940521240234" x2="705.2940521240234" y1="370.7481530659441" y2="8.1" style="shape-rendering: crispedges; stroke-linecap: square; stroke-width: 1.5; opacity: 1; stroke: rgb(238, 238, 238);"/></g><g class="fl-axis-ticks"><g transform="translate(705.2940673828125, 370.7481384277344)" style="opacity: 1;" text-anchor="start"><line x2="7" style="stroke: rgb(238, 238, 238); stroke-width: 1.5;"/><text transform="translate(10.5,4.62)" style="user-select: none; cursor: default; fill: rgb(74, 74, 74); font-size: 14px; font-weight: normal;"><tspan x="0" dy="0">0</tspan></text></g><g transform="translate(705.2940673828125, 48.39423751831055)" style="opacity: 1;" text-anchor="start"><line x2="7" style="stroke: rgb(238, 238, 238); stroke-width: 1.5;"/><text transform="translate(10.5,4.62)" style="user-select: none; cursor: default; fill: rgb(74, 74, 74); font-size: 14px; font-weight: normal;"><tspan x="0" dy="0">8000</tspan></text></g><g transform="translate(705.2940673828125, 128.9827117919922)" style="opacity: 1;" text-anchor="start"><line x2="7" style="stroke: rgb(238, 238, 238); stroke-width: 1.5;"/><text transform="translate(10.5,4.62)" style="user-select: none; cursor: default; fill: rgb(74, 74, 74); font-size: 14px; font-weight: normal;"><tspan x="0" dy="0">6000</tspan></text></g><g transform="translate(705.2940673828125, 209.57119750976562)" style="opacity: 1;" text-anchor="start"><line x2="7" style="stroke: rgb(238, 238, 238); stroke-width: 1.5;"/><text transform="translate(10.5,4.62)" style="user-select: none; cursor: default; fill: rgb(74, 74, 74); font-size: 14px; font-weight: normal;"><tspan x="0" dy="0">4000</tspan></text></g><g transform="translate(705.2940673828125, 290.15966796875)" style="opacity: 1;" text-anchor="start"><line x2="7" style="stroke: rgb(238, 238, 238); stroke-width: 1.5;"/><text transform="translate(10.5,4.62)" style="user-select: none; cursor: default; fill: rgb(74, 74, 74); font-size: 14px; font-weight: normal;"><tspan x="0" dy="0">2000</tspan></text></g></g><g class="fl-axis-title"/></g></g></g><g class="fl-data-foreground" clip-path="url(#fl-chart-layout-1-clip-path)"/></g></g></g></g></g><g class="annotations below"/><g id="areas"/><g id="lines"><g class="series"><clipPath id="clip-0-0"><rect width="0" x="0" y="5.299999999999999" height="368.2481530659441"/></clipPath><path class="line" opacity="1" pointer-events="none" fill="none" stroke="#019c00" stroke-width="2.8000000000000003" transform="translate(31.373977661132812,0)" clip-path="url(#clip-0-0)" clip-path-id="0-0" d="M11.368,365.961C18.967,366.892,26.566,367.823,34.165,367.823C41.744,367.823,49.322,367.666,56.901,367.351C64.479,367.037,72.058,365.925,79.636,365.925C87.214,365.925,94.793,366.39,102.371,366.566C109.971,366.741,117.57,366.977,125.169,366.977C132.747,366.977,140.326,366.348,147.904,365.997C155.483,365.647,163.061,365.314,170.64,364.873C178.218,364.432,185.797,363.917,193.375,363.35C200.974,362.781,208.573,362.047,216.173,361.464C223.751,360.883,231.33,360.304,238.908,359.857C246.486,359.409,254.065,359.153,261.643,358.781C269.222,358.408,276.8,358.394,284.379,357.62C291.978,356.845,299.577,355.722,307.176,353.97C314.755,352.222,322.333,348.719,329.912,347.128C337.49,345.536,345.069,346.225,352.647,344.42C360.225,342.615,367.804,337.958,375.382,334.604C382.982,331.241,390.581,328.724,398.18,324.269C405.758,319.826,413.337,313.667,420.915,307.925C428.494,302.183,436.072,289.817,443.651,289.817C451.229,289.817,458.808,291.691,466.386,291.691C473.985,291.691,481.584,285.202,489.184,282.588C496.762,279.982,504.341,279.012,511.919,276.024C519.497,273.037,527.076,268.52,534.654,264.661C542.233,260.803,549.811,255.603,557.39,252.875C564.989,250.14,572.588,251.348,580.187,248.294C587.766,245.248,595.344,238.907,602.923,229.509C610.501,220.11,618.08,208.574,625.658,191.902C633.236,175.23,640.815,149.395,648.393,129.478C655.993,109.507,663.592,89.149,671.191,72.252C678.769,55.402,686.348,41.803,693.926,28.203"/></g></g><g id="data-points"><g class="series" transform="translate(31.373977661132812,0)" clip-path="url(#fl-chart-layout-1-clip-path)"><path class="data-point" data-type="column" opacity="0.5" fill="#019c00" stroke-width="0" d="M2.8419183191874016,370.7481530659441L19.893428234311543,370.7481530659441L19.893428234311543,365.96119744547366L2.8419183191874016,365.96119744547366Z" transform="translate(0, 0)" tabindex="0" visibility="visible" id="point-1-0"/><path class="data-point" data-type="column" opacity="0.5" fill="#019c00" stroke-width="0" d="M25.63955349338086,370.7481530659441L42.691063408505,370.7481530659441L42.691063408505,367.82279129787884L25.63955349338086,367.82279129787884Z" transform="translate(0, 0)" tabindex="0" visibility="visible" id="point-1-1"/><path class="data-point" data-type="column" opacity="0.5" fill="#019c00" stroke-width="0" d="M48.37490004687981,370.7481530659441L65.42640996200396,370.7481530659441L65.42640996200396,367.3513486988931L48.37490004687981,367.3513486988931Z" transform="translate(0, 0)" tabindex="0" visibility="visible" id="point-1-2"/><path class="data-point" data-type="column" opacity="0.5" fill="#019c00" stroke-width="0" d="M71.11024660037874,370.7481530659441L88.16175651550289,370.7481530659441L88.16175651550289,365.92493263016706L71.11024660037874,365.92493263016706Z" transform="translate(0, 0)" tabindex="0" visibility="visible" id="point-1-3"/><path class="data-point" data-type="column" opacity="0.5" fill="#019c00" stroke-width="0" d="M93.84559315387769,370.7481530659441L110.89710306900183,370.7481530659441L110.89710306900183,366.56561103391687L93.84559315387769,366.56561103391687Z" transform="translate(0, 0)" tabindex="0" visibility="visible" id="point-1-4"/><path class="data-point" data-type="column" opacity="0.5" fill="#019c00" stroke-width="0" d="M116.64322832807115,370.7481530659441L133.69473824319527,370.7481530659441L133.69473824319527,366.9766122740583L116.64322832807115,366.9766122740583Z" transform="translate(0, 0)" tabindex="0" visibility="visible" id="point-1-5"/><path class="data-point" data-type="column" opacity="0.5" fill="#019c00" stroke-width="0" d="M139.37857488157007,370.7481530659441L156.43008479669422,370.7481530659441L156.43008479669422,365.99746226078025L139.37857488157007,365.99746226078025Z" transform="translate(0, 0)" tabindex="0" visibility="visible" id="point-1-6"/><path class="data-point" data-type="column" opacity="0.5" fill="#019c00" stroke-width="0" d="M162.11392143506905,370.7481530659441L179.1654313501932,370.7481530659441L179.1654313501932,364.8732529862758L162.11392143506905,364.8732529862758Z" transform="translate(0, 0)" tabindex="0" visibility="visible" id="point-1-7"/><path class="data-point" data-type="column" opacity="0.5" fill="#019c00" stroke-width="0" d="M184.84926798856796,370.7481530659441L201.9007779036921,370.7481530659441L201.9007779036921,363.35013074339884L184.84926798856796,363.35013074339884Z" transform="translate(0, 0)" tabindex="0" visibility="visible" id="point-1-8"/><path class="data-point" data-type="column" opacity="0.5" fill="#019c00" stroke-width="0" d="M207.64690316276145,370.7481530659441L224.6984130778856,370.7481530659441L224.6984130778856,361.46436034745597L207.64690316276145,361.46436034745597Z" transform="translate(0, 0)" tabindex="0" visibility="visible" id="point-1-9"/><path class="data-point" data-type="column" opacity="0.5" fill="#019c00" stroke-width="0" d="M230.3822497162604,370.7481530659441L247.43375963138453,370.7481530659441L247.43375963138453,359.8566202021969L230.3822497162604,359.8566202021969Z" transform="translate(0, 0)" tabindex="0" visibility="visible" id="point-1-10"/><path class="data-point" data-type="column" opacity="0.5" fill="#019c00" stroke-width="0" d="M253.1175962697593,370.7481530659441L270.16910618488345,370.7481530659441L270.16910618488345,358.7807640147679L253.1175962697593,358.7807640147679Z" transform="translate(0, 0)" tabindex="0" visibility="visible" id="point-1-11"/><path class="data-point" data-type="column" opacity="0.5" fill="#019c00" stroke-width="0" d="M275.8529428232583,370.7481530659441L292.9044527383824,370.7481530659441L292.9044527383824,357.6202899249569L275.8529428232583,357.6202899249569Z" transform="translate(0, 0)" tabindex="0" visibility="visible" id="point-1-12"/><path class="data-point" data-type="column" opacity="0.5" fill="#019c00" stroke-width="0" d="M298.65057799745176,370.7481530659441L315.7020879125759,370.7481530659441L315.7020879125759,353.96963185075975L298.65057799745176,353.96963185075975Z" transform="translate(0, 0)" tabindex="0" visibility="visible" id="point-1-13"/><path class="data-point" data-type="column" opacity="0.5" fill="#019c00" stroke-width="0" d="M321.3859245509507,370.7481530659441L338.4374344660748,370.7481530659441L338.4374344660748,347.12767002958225L321.3859245509507,347.12767002958225Z" transform="translate(0, 0)" tabindex="0" visibility="visible" id="point-1-14"/><path class="data-point" data-type="column" opacity="0.5" fill="#019c00" stroke-width="0" d="M344.1212711044496,370.7481530659441L361.17278101957373,370.7481530659441L361.17278101957373,344.41989715335654L344.1212711044496,344.41989715335654Z" transform="translate(0, 0)" tabindex="0" visibility="visible" id="point-1-15"/><path class="data-point" data-type="column" opacity="0.5" fill="#019c00" stroke-width="0" d="M366.85661765794856,370.7481530659441L383.9081275730727,370.7481530659441L383.9081275730727,334.6042204770383L366.85661765794856,334.6042204770383Z" transform="translate(0, 0)" tabindex="0" visibility="visible" id="point-1-16"/><path class="data-point" data-type="column" opacity="0.5" fill="#019c00" stroke-width="0" d="M389.654252832142,370.7481530659441L406.70576274726614,370.7481530659441L406.70576274726614,324.26874811465893L389.654252832142,324.26874811465893Z" transform="translate(0, 0)" tabindex="0" visibility="visible" id="point-1-17"/><path class="data-point" data-type="column" opacity="0.5" fill="#019c00" stroke-width="0" d="M412.389599385641,370.7481530659441L429.44110930076516,370.7481530659441L429.44110930076516,307.9254046831537L412.389599385641,307.9254046831537Z" transform="translate(0, 0)" tabindex="0" visibility="visible" id="point-1-18"/><path class="data-point" data-type="column" opacity="0.5" fill="#019c00" stroke-width="0" d="M435.1249459391399,370.7481530659441L452.176455854264,370.7481530659441L452.176455854264,289.81717357339426L435.1249459391399,289.81717357339426Z" transform="translate(0, 0)" tabindex="0" visibility="visible" id="point-1-19"/><path class="data-point" data-type="column" opacity="0.5" fill="#019c00" stroke-width="0" d="M457.86029249263885,370.7481530659441L474.911802407763,370.7481530659441L474.911802407763,291.69085569756834L457.86029249263885,291.69085569756834Z" transform="translate(0, 0)" tabindex="0" visibility="visible" id="point-1-20"/><path class="data-point" data-type="column" opacity="0.5" fill="#019c00" stroke-width="0" d="M480.65792766683234,370.7481530659441L497.7094375819565,370.7481530659441L497.7094375819565,282.5883870556131L480.65792766683234,282.5883870556131Z" transform="translate(0, 0)" tabindex="0" visibility="visible" id="point-1-21"/><path class="data-point" data-type="column" opacity="0.5" fill="#019c00" stroke-width="0" d="M503.3932742203312,370.7481530659441L520.4447841354554,370.7481530659441L520.4447841354554,276.0244554851195L503.3932742203312,276.0244554851195Z" transform="translate(0, 0)" tabindex="0" visibility="visible" id="point-1-22"/><path class="data-point" data-type="column" opacity="0.5" fill="#019c00" stroke-width="0" d="M526.1286207738302,370.7481530659441L543.1801306889544,370.7481530659441L543.1801306889544,264.6614800223866L526.1286207738302,264.6614800223866Z" transform="translate(0, 0)" tabindex="0" visibility="visible" id="point-1-23"/><path class="data-point" data-type="column" opacity="0.5" fill="#019c00" stroke-width="0" d="M548.8639673273291,370.7481530659441L565.9154772424532,370.7481530659441L565.9154772424532,252.87541504774342L548.8639673273291,252.87541504774342Z" transform="translate(0, 0)" tabindex="0" visibility="visible" id="point-1-24"/><path class="data-point" data-type="column" opacity="0.5" fill="#019c00" stroke-width="0" d="M571.6616025015226,370.7481530659441L588.7131124166467,370.7481530659441L588.7131124166467,248.29396004734363L571.6616025015226,248.29396004734363Z" transform="translate(0, 0)" tabindex="0" visibility="visible" id="point-1-25"/><path class="data-point" data-type="column" opacity="0.5" fill="#019c00" stroke-width="0" d="M594.3969490550215,370.7481530659441L611.4484589701457,370.7481530659441L611.4484589701457,229.50878571852778L594.3969490550215,229.50878571852778Z" transform="translate(0, 0)" tabindex="0" visibility="visible" id="point-1-26"/><path class="data-point" data-type="column" opacity="0.5" fill="#019c00" stroke-width="0" d="M617.1322956085205,370.7481530659441L634.1838055236447,370.7481530659441L634.1838055236447,191.90217224558936L617.1322956085205,191.90217224558936Z" transform="translate(0, 0)" tabindex="0" visibility="visible" id="point-1-27"/><path class="data-point" data-type="column" opacity="0.5" fill="#019c00" stroke-width="0" d="M639.8676421620195,370.7481530659441L656.9191520771436,370.7481530659441L656.9191520771436,129.47833683117148L639.8676421620195,129.47833683117148Z" transform="translate(0, 0)" tabindex="0" visibility="visible" id="point-1-28"/><path class="data-point" data-type="column" opacity="0.5" fill="#019c00" stroke-width="0" d="M662.665277336213,370.7481530659441L679.7167872513371,370.7481530659441L679.7167872513371,72.25245827736549L662.665277336213,72.25245827736549Z" transform="translate(0, 0)" tabindex="0" visibility="visible" id="point-1-29"/><path class="data-point" data-type="column" opacity="0.5" fill="#019c00" stroke-width="0" d="M685.4006238897118,370.7481530659441L702.452133804836,370.7481530659441L702.452133804836,28.202795951622168L685.4006238897118,28.202795951622168Z" transform="translate(0, 0)" tabindex="0" visibility="visible" id="point-1-30"/></g></g><g id="lines-secondary"><g class="series-secondary"><clipPath id="clip-0-0-secondary"><rect width="705.2940521240234" x="0" y="5.299999999999999" height="368.2481530659441"/></clipPath><path class="line" opacity="1" pointer-events="none" fill="none" stroke="rgb(0, 125, 142)" stroke-width="2.8000000000000003" transform="translate(31.373977661132812, 0)" clip-path="url(#clip-0-0-secondary)" clip-path-id="0-0-secondary" d="M11.368,345.04C18.967,344.496,26.566,343.952,34.165,343.952C41.744,343.952,49.322,360.513,56.901,360.513C64.479,360.513,72.058,353.475,79.636,352.938C87.214,352.401,94.793,352.132,102.371,352.132C109.971,352.132,117.57,352.575,125.169,352.575C132.747,352.575,140.326,351.998,147.904,350.843C155.483,349.688,163.061,348.58,170.64,345.524C178.218,342.468,185.797,336.293,193.375,332.509C200.974,328.715,208.573,329.272,216.173,322.798C223.751,316.342,231.33,303.208,238.908,292.9C246.486,282.591,254.065,271.409,261.643,260.946C269.222,250.483,276.8,243.278,284.379,230.121C291.978,216.928,299.577,194.024,307.176,181.849C314.755,169.707,322.333,157.108,329.912,157.108C337.49,157.108,345.069,166.174,352.647,166.174C360.225,166.174,367.804,104.927,375.382,104.927C382.982,104.927,390.581,118.007,398.18,122.576C405.758,127.133,413.337,125.826,420.915,132.327C428.494,138.828,436.072,203.5,443.651,203.608C451.229,203.715,458.808,203.769,466.386,203.769C473.985,203.769,481.584,197.268,489.184,184.266C496.762,171.3,504.341,129.191,511.919,111.495C519.497,93.799,527.076,88.097,534.654,78.091C542.233,68.085,549.811,62.008,557.39,51.457C564.989,40.876,572.588,14.668,580.187,14.668C587.766,14.668,595.344,16.777,602.923,20.994C610.501,25.212,618.08,35.641,625.658,50.53C633.236,65.419,640.815,85.151,648.393,110.326C655.993,135.571,663.592,178.35,671.191,201.875C678.769,225.335,686.348,238.366,693.926,251.397"/></g></g><g id="data-points-secondary"><g class="series-secondary" transform="translate(31.373977661132812, 0)"><path class="data-point-secondary" visibility="visible" fill="rgb(0, 125, 142)" data-type="point" transform="translate(0, 0)" d="M7.867673276749473,345.04042843749164A3.5,3.5,0,1,1,14.867673276749473,345.04042843749164A3.5,3.5,0,1,1,7.867673276749473,345.04042843749164Z" opacity="1" tabindex="0" id="point-0-0-secondary"/><path class="data-point-secondary" visibility="visible" fill="rgb(0, 125, 142)" data-type="point" transform="translate(0, 0)" d="M30.66530845094293,343.9524839782938A3.5,3.5,0,1,1,37.66530845094293,343.9524839782938A3.5,3.5,0,1,1,30.66530845094293,343.9524839782938Z" opacity="1" tabindex="0" id="point-0-1-secondary"/><path class="data-point-secondary" visibility="visible" fill="rgb(0, 125, 142)" data-type="point" transform="translate(0, 0)" d="M53.40065500444188,360.51341630163853A3.5,3.5,0,1,1,60.40065500444188,360.51341630163853A3.5,3.5,0,1,1,53.40065500444188,360.51341630163853Z" opacity="1" tabindex="0" id="point-0-2-secondary"/><path class="data-point-secondary" visibility="visible" fill="rgb(0, 125, 142)" data-type="point" transform="translate(0, 0)" d="M76.13600155794082,352.9380993264833A3.5,3.5,0,1,1,83.13600155794082,352.9380993264833A3.5,3.5,0,1,1,76.13600155794082,352.9380993264833Z" opacity="1" tabindex="0" id="point-0-3-secondary"/><path class="data-point-secondary" visibility="visible" fill="rgb(0, 125, 142)" data-type="point" transform="translate(0, 0)" d="M98.87134811143976,352.1322145418923A3.5,3.5,0,1,1,105.87134811143976,352.1322145418923A3.5,3.5,0,1,1,98.87134811143976,352.1322145418923Z" opacity="1" tabindex="0" id="point-0-4-secondary"/><path class="data-point-secondary" visibility="visible" fill="rgb(0, 125, 142)" data-type="point" transform="translate(0, 0)" d="M121.66898328563322,352.5754511734173A3.5,3.5,0,1,1,128.6689832856332,352.5754511734173A3.5,3.5,0,1,1,121.66898328563322,352.5754511734173Z" opacity="1" tabindex="0" id="point-0-5-secondary"/><path class="data-point-secondary" visibility="visible" fill="rgb(0, 125, 142)" data-type="point" transform="translate(0, 0)" d="M144.40432983913215,350.84279888654675A3.5,3.5,0,1,1,151.40432983913215,350.84279888654675A3.5,3.5,0,1,1,144.40432983913215,350.84279888654675Z" opacity="1" tabindex="0" id="point-0-6-secondary"/><path class="data-point-secondary" visibility="visible" fill="rgb(0, 125, 142)" data-type="point" transform="translate(0, 0)" d="M167.13967639263112,345.5239593082462A3.5,3.5,0,1,1,174.13967639263112,345.5239593082462A3.5,3.5,0,1,1,167.13967639263112,345.5239593082462Z" opacity="1" tabindex="0" id="point-0-7-secondary"/><path class="data-point-secondary" visibility="visible" fill="rgb(0, 125, 142)" data-type="point" transform="translate(0, 0)" d="M189.87502294613003,332.5089200371018A3.5,3.5,0,1,1,196.87502294613003,332.5089200371018A3.5,3.5,0,1,1,189.87502294613003,332.5089200371018Z" opacity="1" tabindex="0" id="point-0-8-secondary"/><path class="data-point-secondary" visibility="visible" fill="rgb(0, 125, 142)" data-type="point" transform="translate(0, 0)" d="M212.67265812032352,322.7980083827804A3.5,3.5,0,1,1,219.67265812032352,322.7980083827804A3.5,3.5,0,1,1,212.67265812032352,322.7980083827804Z" opacity="1" tabindex="0" id="point-0-9-secondary"/><path class="data-point-secondary" visibility="visible" fill="rgb(0, 125, 142)" data-type="point" transform="translate(0, 0)" d="M235.40800467382246,292.8996828744548A3.5,3.5,0,1,1,242.40800467382246,292.8996828744548A3.5,3.5,0,1,1,235.40800467382246,292.8996828744548Z" opacity="1" tabindex="0" id="point-0-10-secondary"/><path class="data-point-secondary" visibility="visible" fill="rgb(0, 125, 142)" data-type="point" transform="translate(0, 0)" d="M258.1433512273214,260.94635116542213A3.5,3.5,0,1,1,265.1433512273214,260.94635116542213A3.5,3.5,0,1,1,258.1433512273214,260.94635116542213Z" opacity="1" tabindex="0" id="point-0-11-secondary"/><path class="data-point-secondary" visibility="visible" fill="rgb(0, 125, 142)" data-type="point" transform="translate(0, 0)" d="M280.87869778082035,230.12125815481687A3.5,3.5,0,1,1,287.87869778082035,230.12125815481687A3.5,3.5,0,1,1,280.87869778082035,230.12125815481687Z" opacity="1" tabindex="0" id="point-0-12-secondary"/><path class="data-point-secondary" visibility="visible" fill="rgb(0, 125, 142)" data-type="point" transform="translate(0, 0)" d="M303.67633295501383,181.8487595578168A3.5,3.5,0,1,1,310.67633295501383,181.8487595578168A3.5,3.5,0,1,1,303.67633295501383,181.8487595578168Z" opacity="1" tabindex="0" id="point-0-13-secondary"/><path class="data-point-secondary" visibility="visible" fill="rgb(0, 125, 142)" data-type="point" transform="translate(0, 0)" d="M326.41167950851275,157.1080966708735A3.5,3.5,0,1,1,333.41167950851275,157.1080966708735A3.5,3.5,0,1,1,326.41167950851275,157.1080966708735Z" opacity="1" tabindex="0" id="point-0-14-secondary"/><path class="data-point-secondary" visibility="visible" fill="rgb(0, 125, 142)" data-type="point" transform="translate(0, 0)" d="M349.14702606201166,166.17430049752207A3.5,3.5,0,1,1,356.14702606201166,166.17430049752207A3.5,3.5,0,1,1,349.14702606201166,166.17430049752207Z" opacity="1" tabindex="0" id="point-0-15-secondary"/><path class="data-point-secondary" visibility="visible" fill="rgb(0, 125, 142)" data-type="point" transform="translate(0, 0)" d="M371.88237261551063,104.92705686860708A3.5,3.5,0,1,1,378.88237261551063,104.92705686860708A3.5,3.5,0,1,1,371.88237261551063,104.92705686860708Z" opacity="1" tabindex="0" id="point-0-16-secondary"/><path class="data-point-secondary" visibility="visible" fill="rgb(0, 125, 142)" data-type="point" transform="translate(0, 0)" d="M394.68000778970406,122.57593365114968A3.5,3.5,0,1,1,401.68000778970406,122.57593365114968A3.5,3.5,0,1,1,394.68000778970406,122.57593365114968Z" opacity="1" tabindex="0" id="point-0-17-secondary"/><path class="data-point-secondary" visibility="visible" fill="rgb(0, 125, 142)" data-type="point" transform="translate(0, 0)" d="M417.4153543432031,132.32713954470063A3.5,3.5,0,1,1,424.4153543432031,132.32713954470063A3.5,3.5,0,1,1,417.4153543432031,132.32713954470063Z" opacity="1" tabindex="0" id="point-0-18-secondary"/><path class="data-point-secondary" visibility="visible" fill="rgb(0, 125, 142)" data-type="point" transform="translate(0, 0)" d="M440.15070089670195,203.60764874177343A3.5,3.5,0,1,1,447.15070089670195,203.60764874177343A3.5,3.5,0,1,1,440.15070089670195,203.60764874177343Z" opacity="1" tabindex="0" id="point-0-19-secondary"/><path class="data-point-secondary" visibility="visible" fill="rgb(0, 125, 142)" data-type="point" transform="translate(0, 0)" d="M462.8860474502009,203.76882569869164A3.5,3.5,0,1,1,469.8860474502009,203.76882569869164A3.5,3.5,0,1,1,462.8860474502009,203.76882569869164Z" opacity="1" tabindex="0" id="point-0-20-secondary"/><path class="data-point-secondary" visibility="visible" fill="rgb(0, 125, 142)" data-type="point" transform="translate(0, 0)" d="M485.6836826243944,184.26641391158972A3.5,3.5,0,1,1,492.6836826243944,184.26641391158972A3.5,3.5,0,1,1,485.6836826243944,184.26641391158972Z" opacity="1" tabindex="0" id="point-0-21-secondary"/><path class="data-point-secondary" visibility="visible" fill="rgb(0, 125, 142)" data-type="point" transform="translate(0, 0)" d="M508.41902917789326,111.4950178630236A3.5,3.5,0,1,1,515.4190291778932,111.4950178630236A3.5,3.5,0,1,1,508.41902917789326,111.4950178630236Z" opacity="1" tabindex="0" id="point-0-22-secondary"/><path class="data-point-secondary" visibility="visible" fill="rgb(0, 125, 142)" data-type="point" transform="translate(0, 0)" d="M531.1543757313923,78.09109354172719A3.5,3.5,0,1,1,538.1543757313923,78.09109354172719A3.5,3.5,0,1,1,531.1543757313923,78.09109354172719Z" opacity="1" tabindex="0" id="point-0-23-secondary"/><path class="data-point-secondary" visibility="visible" fill="rgb(0, 125, 142)" data-type="point" transform="translate(0, 0)" d="M553.8897222848911,51.456601410995084A3.5,3.5,0,1,1,560.8897222848911,51.456601410995084A3.5,3.5,0,1,1,553.8897222848911,51.456601410995084Z" opacity="1" tabindex="0" id="point-0-24-secondary"/><path class="data-point-secondary" visibility="visible" fill="rgb(0, 125, 142)" data-type="point" transform="translate(0, 0)" d="M576.6873574590846,14.66796099441653A3.5,3.5,0,1,1,583.6873574590846,14.66796099441653A3.5,3.5,0,1,1,576.6873574590846,14.66796099441653Z" opacity="1" tabindex="0" id="point-0-25-secondary"/><path class="data-point-secondary" visibility="visible" fill="rgb(0, 125, 142)" data-type="point" transform="translate(0, 0)" d="M599.4227040125836,20.99415655345579A3.5,3.5,0,1,1,606.4227040125836,20.99415655345579A3.5,3.5,0,1,1,599.4227040125836,20.99415655345579Z" opacity="1" tabindex="0" id="point-0-26-secondary"/><path class="data-point-secondary" visibility="visible" fill="rgb(0, 125, 142)" data-type="point" transform="translate(0, 0)" d="M622.1580505660826,50.52983390871545A3.5,3.5,0,1,1,629.1580505660826,50.52983390871545A3.5,3.5,0,1,1,622.1580505660826,50.52983390871545Z" opacity="1" tabindex="0" id="point-0-27-secondary"/><path class="data-point-secondary" visibility="visible" fill="rgb(0, 125, 142)" data-type="point" transform="translate(0, 0)" d="M644.8933971195816,110.32648492536667A3.5,3.5,0,1,1,651.8933971195816,110.32648492536667A3.5,3.5,0,1,1,644.8933971195816,110.32648492536667Z" opacity="1" tabindex="0" id="point-0-28-secondary"/><path class="data-point-secondary" visibility="visible" fill="rgb(0, 125, 142)" data-type="point" transform="translate(0, 0)" d="M667.691032293775,201.8749964549028A3.5,3.5,0,1,1,674.691032293775,201.8749964549028A3.5,3.5,0,1,1,667.691032293775,201.8749964549028Z" opacity="1" tabindex="0" id="point-0-29-secondary"/><path class="data-point-secondary" visibility="visible" fill="rgb(0, 125, 142)" data-type="point" transform="translate(0, 0)" d="M690.4263788472739,251.39661646801892A3.5,3.5,0,1,1,697.4263788472739,251.39661646801892A3.5,3.5,0,1,1,690.4263788472739,251.39661646801892Z" opacity="1" tabindex="0" id="point-0-30-secondary"/></g></g><g id="axes-highlights"><g class="axis-highlights-facet"><defs><pattern class="fl-pattern-auto" width="4" height="4" patternUnits="userSpaceOnUse" id="fl-pattern-diagonal-x"><path stroke-width="1" shape-rendering="auto" stroke-linecap="square" d="M 0 4 l 4 -4 M -1 1 l 2 -2 M 3 5 l 2 -2" style="stroke: currentcolor;"/></pattern><pattern class="fl-pattern-auto" width="4" height="4" patternUnits="userSpaceOnUse" id="fl-pattern-dots-x"><path stroke-width="1" shape-rendering="auto" stroke-linecap="square" d="M 1 2 A 1.2 1.2 0 1 1 1 2.1 Z" style="fill: currentcolor;"/></pattern><pattern class="fl-pattern-auto" width="4" height="4" patternUnits="userSpaceOnUse" id="fl-pattern-grid-x"><path stroke-width="1" shape-rendering="auto" stroke-linecap="square" d="M 2 0 l 0 4 M 0 2 l 4 0" style="stroke: currentcolor;"/></pattern><pattern class="fl-pattern-auto" width="4" height="4" patternUnits="userSpaceOnUse" id="fl-pattern-diagonal-y"><path stroke-width="1" shape-rendering="auto" stroke-linecap="square" d="M 0 4 l 4 -4 M -1 1 l 2 -2 M 3 5 l 2 -2" style="stroke: currentcolor;"/></pattern><pattern class="fl-pattern-auto" width="4" height="4" patternUnits="userSpaceOnUse" id="fl-pattern-grid-y"><path stroke-width="1" shape-rendering="auto" stroke-linecap="square" d="M 2 0 l 0 4 M 0 2 l 4 0" style="stroke: currentcolor;"/></pattern><pattern class="fl-pattern-auto" width="4" height="4" patternUnits="userSpaceOnUse" id="fl-pattern-dots-y"><path stroke-width="1" shape-rendering="auto" stroke-linecap="square" d="M 1 2 A 1.2 1.2 0 1 1 1 2.1 Z" style="fill: currentcolor;"/></pattern></defs><g class="axis-highlights" style="opacity: 1;" transform="translate(31.373977661132812, 0)"/></g></g><g id="data-point-labels"><g class="series" transform="translate(31.373977661132812, 0)" clip-path="url(#fl-chart-layout-1-clip-path)"/><g class="series" transform="translate(31.373977661132812,0)" clip-path="url(#fl-chart-layout-1-clip-path)"/></g><g id="stack-labels"/><g class="annotations above"/></svg><svg xmlns="http://www.w3.org/2000/svg" class="flourish-panel-close" viewBox="0 0 40 40" style="width: 1.25rem; height: 1.25rem; position: absolute; right: 1rem; top: 1rem; cursor: pointer; opacity: 0;" x="-31.5" y="14"><path stroke="#333333" stroke-width="0.5rem" stroke-linecap="round" d="M 10,10 L 30,30 M 30,10 L 10,30" style="stroke: rgb(51, 51, 51);"/></svg><svg xmlns="http://www.w3.org/2000/svg" id="fl-layout-svg-screenshot-container" class="flourish-screenshot-svg-container" style="left: 0px; top: 0px; width: 796px; height: 575px; position: absolute;" x="0" y="0"><text x="10.5px" y="10.5px" font-family="&quot;Source Sans Pro&quot;" font-size="22.4px" font-weight="700" fill="rgb(51, 51, 51)" style="dominant-baseline: text-before-edge;"><tspan dy="7" dx="0" x="10.5" opacity="1">Intercountry Adoption Grew Despite Steady Economic Growth</tspan></text><text x="10.5px" y="44.375px" font-family="&quot;Source Sans Pro&quot;" font-size="16.8px" font-weight="400" fill="rgb(51, 51, 51)" style="dominant-baseline: text-before-edge;"><tspan dy="0" dx="0" x="10.5" opacity="1">The South Korean government has entrusted several christian based private organizations, including Holt</tspan><tspan dy="20.16px" dx="0" x="10.5" opacity="1">International, in the first place with both domestic and international adoption operations, becoming a decent</tspan><tspan dy="20.16px" dx="0" x="10.5" opacity="1">business of foreign currency earning.</tspan></text><text x="10.5px" y="104.84375px" font-family="&quot;Source Sans Pro&quot;" font-size="16.8px" font-weight="400" fill="rgb(51, 51, 51)" style="dominant-baseline: text-before-edge;"><tspan dy="0" dx="0" x="10.5" opacity="1"/></text><text x="10.5px" y="564.5px" font-family="&quot;Source Sans Pro&quot;" font-size="14px" font-weight="400" fill="rgb(51, 51, 51)" style="dominant-baseline: text-before-edge;"><tspan dy="0" dx="0" x="10.5" opacity="1"/></text></svg><svg xmlns="http://www.w3.org/2000/svg" id="fl-legend-discrete-color-0-svg-screenshot-container" class="flourish-screenshot-svg-container" style="left: 0px; top: 0px; width: 796px; height: 575px; position: absolute;" x="0" y="0"><text x="0px" y="0px" font-family="&quot;Source Sans Pro&quot;" font-size="14px" font-weight="700" fill="rgb(51, 51, 51)" style="dominant-baseline: text-before-edge;"><tspan dy="0" dx="0" x="0" opacity="1"/></text><circle cx="15.75px" cy="126.09375px" r="5.25px" opacity="1" fill="rgb(0, 125, 142)"/><circle cx="329.8828125px" cy="126.09375px" r="5.25px" opacity="1" fill="rgb(1, 156, 0)"/><text x="21px" y="118.84375px" font-family="&quot;Source Sans Pro&quot;" font-size="14px" font-weight="400" fill="rgb(51, 51, 51)" style="dominant-baseline: text-before-edge;"><tspan dy="0" dx="2.8" x="21" opacity="1">number of children given up for overseas adoption</tspan></text><text x="335.1328125px" y="118.84375px" font-family="&quot;Source Sans Pro&quot;" font-size="14px" font-weight="400" fill="rgb(51, 51, 51)" style="dominant-baseline: text-before-edge;"><tspan dy="0" dx="2.8" x="335.1328125" opacity="1">gdp(billion)</tspan></text></svg></svg>